<svg xmlns="http://www.w3.org/2000/svg">
  <symbol id="icon-team" viewBox="0 0 32 32">
    <path d="M23.059 3.727l-0.386 0.387v-0.387h-1.902c-0.858 1.326-2.669 2.242-4.771 2.242s-3.913-0.916-4.77-2.242h-1.902v0.387l-0.387-0.387-6.842 6.846 3.743 3.746 3.486-3.488v17.442h13.345v-17.441l3.487 3.488 3.742-3.746-6.841-6.846z"></path>
    <path d="M22.672 29.811h-13.345c-0.849 0-1.539-0.689-1.539-1.539v-13.726l-0.86 0.86c-0.288 0.289-0.68 0.451-1.089 0.451 0 0 0 0 0 0-0.408 0-0.8-0.162-1.089-0.451l-3.743-3.746c-0.6-0.601-0.6-1.574 0-2.176l6.844-6.846c0.334-0.335 0.816-0.497 1.281-0.438 0.064-0.008 0.129-0.012 0.194-0.012h1.902c0.522 0 1.009 0.265 1.292 0.702 0.605 0.935 1.971 1.539 3.479 1.539s2.874-0.604 3.48-1.539c0.283-0.438 0.769-0.702 1.292-0.702h1.902c0.065 0 0.13 0.004 0.194 0.012 0.063-0.008 0.127-0.012 0.192-0.012 0.001 0 0.001 0 0.001 0 0.408 0 0.799 0.162 1.089 0.451l6.842 6.845c0.6 0.601 0.6 1.574 0 2.176l-3.742 3.747c-0.288 0.288-0.68 0.451-1.088 0.451-0.001 0-0.001 0-0.001 0-0.408 0.001-0.799-0.162-1.088-0.45l-0.861-0.862v13.727c-0.001 0.85-0.689 1.539-1.539 1.539zM10.865 26.734h10.268v-15.902c0-0.622 0.375-1.183 0.949-1.422s1.236-0.107 1.677 0.334l2.399 2.399 1.568-1.569-4.923-4.926c-0.245 0.022-0.487-0.016-0.719-0.112-0.161-0.066-0.306-0.158-0.432-0.27h-0.132c-1.27 1.4-3.306 2.242-5.52 2.242s-4.25-0.842-5.52-2.242h-0.132c-0.125 0.112-0.271 0.203-0.432 0.27-0.233 0.096-0.481 0.13-0.72 0.112l-4.923 4.927 1.568 1.569 2.398-2.399c0.44-0.441 1.102-0.572 1.677-0.334s0.95 0.799 0.95 1.422v15.902z"></path>
  </symbol>
  <symbol id="icon-info" viewBox="0 0 32 32">
    <path d="M22.056 25.693c-0.005-0.667-0.544-1.207-1.211-1.211h-1.212v-10.902c-0.005-0.667-0.544-1.207-1.211-1.211h-7.269c-0.667 0.005-1.207 0.544-1.211 1.211v2.423c0.005 0.667 0.544 1.207 1.211 1.211h1.212v7.269h-1.211c-0.667 0.005-1.207 0.544-1.211 1.211v2.424c0.005 0.667 0.544 1.207 1.211 1.211h9.692c0.667-0.005 1.207-0.544 1.211-1.211v-0zM19.634 3.888c-0.005-0.667-0.544-1.207-1.211-1.211h-4.847c-0.667 0.005-1.207 0.544-1.211 1.211v3.634c0.005 0.667 0.544 1.207 1.211 1.211h4.847c0.667-0.005 1.207-0.544 1.211-1.211v-0z"></path>
  </symbol>
  <symbol id="icon-blocks" viewBox="0 0 32 32">
    <path d="M2 2h11.2v11.2h-11.2v-11.2z"></path>
    <path d="M18.8 2h11.2v11.2h-11.2v-11.2z"></path>
    <path d="M2 18.8h11.2v11.2h-11.2v-11.2z"></path>
    <path d="M18.8 18.8h11.2v11.2h-11.2v-11.2z"></path>
  </symbol>
  <symbol id="icon-check-ribbon" viewBox="0 0 32 32">
    <path d="M15.954 30.17c-0.001 0-0.002 0-0.003 0-0.494 0-0.954-0.149-1.335-0.405l0.009 0.005-1.307-0.862c-0.376-0.249-0.837-0.398-1.333-0.398h-0.136l-1.555 0.094h-0.146c-0.938-0.001-1.751-0.538-2.149-1.321l-0.006-0.014-0.701-1.395c-0.237-0.466-0.607-0.836-1.060-1.067l-0.014-0.006-1.416-0.698c-0.796-0.402-1.332-1.213-1.332-2.149 0-0.056 0.002-0.111 0.006-0.166l-0 0.007 0.094-1.555c0.002-0.041 0.004-0.089 0.004-0.137 0-0.495-0.148-0.956-0.403-1.34l0.006 0.009-0.854-1.296c-0.251-0.374-0.4-0.834-0.4-1.33s0.149-0.956 0.406-1.338l-0.006 0.009 0.854-1.301c0.25-0.376 0.4-0.838 0.4-1.334 0-0.051-0.002-0.102-0.005-0.153l0 0.007-0.096-1.55c-0.003-0.045-0.005-0.098-0.005-0.152 0-0.936 0.536-1.747 1.318-2.143l0.014-0.006 1.395-0.701c0.469-0.243 0.842-0.617 1.075-1.074l0.006-0.014 0.704-1.4c0.405-0.795 1.218-1.33 2.155-1.331h0.146l1.557 0.094h0.136c0.006 0 0.013 0 0.021 0 0.488 0 0.942-0.145 1.321-0.394l-0.009 0.006 1.307-0.854c0.375-0.252 0.836-0.402 1.333-0.402s0.958 0.15 1.341 0.408l-0.009-0.005 1.301 0.854c0.375 0.249 0.836 0.397 1.331 0.398h0.136l1.552-0.099h0.146c0.938 0.001 1.751 0.538 2.149 1.321l0.006 0.014 0.701 1.395c0.237 0.467 0.607 0.837 1.060 1.067l0.014 0.006 1.41 0.709c0.797 0.401 1.334 1.213 1.334 2.15 0 0.053-0.002 0.105-0.005 0.157l0-0.007-0.094 1.554c-0.002 0.041-0.004 0.088-0.004 0.136 0 0.496 0.148 0.957 0.403 1.342l-0.006-0.009 0.862 1.301c0.251 0.374 0.4 0.834 0.4 1.33s-0.149 0.956-0.406 1.338l0.006-0.009-0.862 1.307c-0.249 0.375-0.398 0.836-0.398 1.331 0 0.048 0.001 0.096 0.004 0.144l-0-0.007 0.094 1.557c0.003 0.045 0.005 0.097 0.005 0.15 0 0.937-0.537 1.749-1.321 2.144l-0.014 0.006-1.395 0.701c-0.467 0.237-0.837 0.607-1.067 1.060l-0.006 0.014-0.709 1.41c-0.404 0.797-1.217 1.333-2.155 1.334h-0.146l-1.555-0.094h-0.136c-0.002 0-0.004 0-0.006 0-0.494 0-0.953 0.149-1.335 0.404l0.009-0.006-1.301 0.862c-0.369 0.243-0.821 0.387-1.307 0.387-0.008 0-0.016-0-0.024-0h0.001zM10.648 14.475c-0.003-0-0.007-0-0.010-0-0.201 0-0.381 0.090-0.501 0.233l-0.001 0.001-1.083 1.054c-0.127 0.138-0.205 0.324-0.205 0.527s0.078 0.389 0.206 0.528l-0.001-0.001 4.89 4.861c0.131 0.144 0.318 0.234 0.527 0.234s0.397-0.090 0.527-0.234l0.001-0.001 8.64-8.608c0.127-0.138 0.205-0.324 0.205-0.527s-0.078-0.389-0.206-0.528l0 0.001-1.083-1.054c-0.121-0.143-0.3-0.234-0.501-0.234-0.004 0-0.008 0-0.011 0h0.001c-0.213 0-0.406 0.090-0.542 0.233l-0 0-7.030 7.027-3.28-3.28c-0.136-0.144-0.328-0.233-0.541-0.234h-0z"></path>
  </symbol>
  <symbol id="icon-tiktok" viewBox="0 0 32 32">
    <path d="M28.96 13.28c-2.56 0-5.12-0.8-7.040-2.24v10.4c0 5.28-4.16 9.44-9.44 9.44s-9.44-4.16-9.44-9.44c0-5.28 4.16-9.44 9.44-9.44 0.48 0 0.8 0 1.28 0.16v5.28c-2.24-0.64-4.64 0.48-5.44 2.88-0.8 2.080 0.48 4.48 2.88 5.28 2.24 0.64 4.64-0.48 5.44-2.88 0.16-0.48 0.16-0.8 0.16-1.28v-20.32h5.12c0 0.48 0 0.8 0.16 1.28v0c0.32 1.92 1.44 3.52 3.2 4.64 1.12 0.8 2.56 1.12 3.84 1.12v5.12z"></path>
  </symbol>
  <symbol id="icon-add-bracket" viewBox="0 0 32 32">
    <path d="M30.955 21.768c0.48 0 0.96 0.32 0.96 0.8 0 0 0 0 0 0v1.76c0 0.48-0.32 0.96-0.8 0.96 0 0 0 0 0 0h-3.52v3.52c0 0.48-0.32 0.96-0.8 0.96 0 0 0 0 0 0h-1.76c-0.48 0-0.96-0.32-0.96-0.8 0 0 0 0 0 0v-3.52h-4c-0.48 0-0.96-0.32-0.96-0.8 0 0 0 0 0 0v-1.92c0-0.48 0.32-0.96 0.8-0.96 0 0 0 0 0 0h3.52v-3.52c0-0.48 0.32-0.96 0.8-0.96 0 0 0 0 0 0h1.76c0.48 0 0.96 0.32 0.96 0.8 0 0 0 0 0 0v3.52h4z"></path>
    <path d="M7.115 27.528h-7.68v-3.2h6.4v-3.36h-6.4v-3.2h9.6v3.52h3.68v-13.28h-3.68v3.040h-9.6v-3.2h6.4v-3.36h-6.56v-3.2h9.76v3.52h6.88v8h6.56v3.2h-6.56v8.48h-6.88v3.040h-1.92z"></path>
  </symbol>
  <symbol id="icon-wtn" viewBox="0 0 32 32">
    <path d="M28.48 19.2c0-0.32-0.32-0.64-0.64-0.64h-0.96c-0.16 0-0.48 0-0.64 0v0c-0.48 0-0.96 0-1.6 0-0.16-0.8-0.32-1.6-0.64-2.24-0.48-1.6-0.96-3.2-1.44-4.8 0.32 0 4.8 0.64 4.48-2.56 0 0 0 0 0 0 0-0.16 0.16-2.080-5.76-1.28-0.32-1.12-0.8-2.080-0.96-2.88v0c0-0.32-0.16-0.48-0.32-0.8v0l-0.32-1.12c-0.16-0.32-0.48-0.64-0.8-0.48s-0.64 0.48-0.48 0.8l0.16 0.64c0 0.16 0 0.32 0.16 0.48 0 0 0 0 0 0v0 0c-0.16 0.64 0.16 2.080 0.48 3.84-1.28 0.16-2.4 0.48-3.68 0.8-1.12 0.32-1.76 0.48-2.88 0.8 0 0 0 0 0 0-0.64-4.64-2.24-5.6-3.040-5.92-0.64-0.16-1.28 0-1.92 0.16-1.12 0.64-1.76 1.92-1.28 3.040l0.64 1.28c0.16 0.48 0.32 0.8 0.48 0.96l0.48 1.12c0.16 0.32 0.32 0.8 0.48 1.28 0-0.16 0-0.16-0.16-0.32-0.96 0.32-1.76 0.64-2.4 0.8v0c-0.32 0-0.64 0.16-0.96 0.32 0 0 0 0 0 0v0 0c0 0 0 0 0 0-0.16 0-0.16 0-0.32 0.16h-0.48c-0.32 0.16-0.48 0.48-0.32 0.64 0 0.32 0.32 0.48 0.64 0.48l0.8-0.16c0.16 0 0.16 0 0.32 0 0 0 0.16 0 0.16 0v0c0.48-0.16 1.6-0.32 3.040-0.48 0-0.48-0.16-0.8-0.16-0.96 0.64 1.92 1.12 4.48 1.6 7.040-3.52 0.64-4.32 2.080-4.48 2.72-0.16 0.48-0.16 0.96 0.16 1.6 0.48 1.12 1.6 1.6 2.56 1.12l0.96-0.64c0.32-0.16 0.64-0.32 0.8-0.32l0.64-0.32c0.48 2.72 0.8 4.96 0.8 5.6v0 0c0 0 0 0 0 0 0 0.16 0 0.32 0 0.48v0.64c0 0.32 0.32 0.64 0.8 0.64s0.64-0.32 0.64-0.64v-1.12c0-0.32 0-0.48 0-0.8v0c0-1.28 0-3.2 0-5.6 2.080-0.64 4.8-1.12 7.040-1.44 0 0.96 0 1.76 0 2.4l-0.16 1.12c0 0.16-0.16 0.64-0.16 0.96l-0.16 1.44c-0.16 1.28 0.8 2.4 2.24 2.56 0.64 0 1.28-0.16 1.76-0.48 0.8-0.48 2.080-2.24 0.96-7.52-0.16-0.48-0.16-0.8-0.32-1.28 0.96-0.16 1.76-0.32 2.080-0.32v0 0c0 0 0 0 0 0 0.16 0 0.32 0 0.32 0h0.48c1.12-0.16 1.28-0.48 1.28-0.8zM8.48 11.68c0 0.16 0 0.16 0.16 0.32-0.16 0-0.16-0.16-0.16-0.32zM16 18.4c-0.8 0-1.76 0.16-2.56 0.16 0-0.8 0-1.76 0-2.56 0-1.28-0.16-2.56-0.32-3.84 0 0 0 0 0 0 2.4-0.32 4.64-0.64 6.56-0.64 0.32 2.24 0.64 4.64 0.8 6.88-1.44 0-2.88 0-4.48 0z"></path>
  </symbol>
  <symbol id="icon-bookmark-solid" viewBox="0 0 32 32">
    <path d="M5.92 29.44v-24.32c0-1.44 1.12-2.56 2.56-2.56h15.2c1.44 0 2.56 1.12 2.56 2.56v24.48l-10.24-6.080-10.080 5.92z"></path>
  </symbol> 
  <symbol id="icon-notes-medical" viewBox="0 0 32 32">
    <path d="M24.16 5.12h-4.48c0-2.080-1.6-3.68-3.68-3.68s-3.68 1.6-3.68 3.68h-4.48c-1.44 0-2.72 1.28-2.72 2.72v20c0 1.44 1.28 2.72 2.72 2.72h16.32c1.44 0 2.72-1.28 2.72-2.72v-20c0-1.6-1.12-2.72-2.72-2.72zM16 3.68c0.8 0 1.44 0.64 1.44 1.44 0 0.64-0.64 1.28-1.44 1.28s-1.44-0.64-1.44-1.28 0.64-1.44 1.44-1.44zM21.44 20.96c0 0.32-0.16 0.48-0.48 0.48h-3.2v3.2c0 0.32-0.16 0.48-0.48 0.48h-2.72c-0.32 0-0.48-0.16-0.48-0.48v-3.2h-3.2c-0.32 0-0.48-0.16-0.48-0.48v-2.72c0-0.32 0.16-0.48 0.48-0.48h3.2v-3.2c0.16-0.16 0.32-0.32 0.48-0.32h2.72c0.32 0 0.48 0.16 0.48 0.48v3.2h3.2c0.32 0 0.48 0.16 0.48 0.48v2.56zM21.44 10.080c0 0.32-0.16 0.48-0.48 0.48h-9.92c-0.32 0-0.48-0.16-0.48-0.48v-0.96c0-0.32 0.16-0.48 0.48-0.48h10.080c0.32 0 0.48 0.16 0.48 0.48v0.96z"></path>
  </symbol>
  <symbol id="icon-arrow-left-circle" viewBox="0 0 32 32">
    <path d="M1.6 16c0 8 6.4 14.4 14.4 14.4s14.4-6.4 14.4-14.4-6.4-14.4-14.4-14.4-14.4 6.4-14.4 14.4zM27.68 16c0 6.4-5.12 11.68-11.68 11.68s-11.68-5.28-11.68-11.68 5.28-11.68 11.68-11.68 11.68 5.28 11.68 11.68zM23.36 14.88v2.4c0 0.32-0.32 0.64-0.64 0.64h-6.72v3.84c0 0.64-0.8 0.96-1.12 0.48l-5.76-5.76c-0.32-0.32-0.32-0.64 0-0.96l5.76-5.76c0.32-0.48 1.12-0.16 1.12 0.48v3.84h6.72c0.32 0 0.64 0.32 0.64 0.8z"></path>
  </symbol>
  <symbol id="icon-clock" viewBox="0 0 32 32">
    <path d="M16.16 1.6c-7.84 0-14.24 6.4-14.24 14.24s6.4 14.24 14.24 14.24 14.24-6.4 14.24-14.24-6.4-14.24-14.24-14.24zM16.16 27.52c-6.4 0-11.52-5.12-11.52-11.52s5.12-11.52 11.52-11.52 11.52 5.12 11.52 11.52-5.12 11.52-11.52 11.52zM19.68 21.44l-4.96-3.52c-0.16-0.16-0.32-0.32-0.32-0.48v-9.6c0-0.32 0.32-0.64 0.64-0.64h1.92c0.32 0 0.64 0.32 0.64 0.64v8.16l3.84 2.88c0.32 0.16 0.32 0.64 0.16 0.96l-1.12 1.44c0 0.32-0.48 0.32-0.8 0.16z"></path>
  </symbol>
  <symbol id="icon-move-diagonal" viewBox="0 0 28 32">
    <path d="M27.5 21.304v6.75c0 0.001 0 0.002 0 0.004 0 0.797-0.646 1.443-1.443 1.443-0.001 0-0.003 0-0.004 0h-6.75c-1.289 0-1.934-1.561-1.025-2.471l2.182-2.182-6.461-6.461-6.463 6.467 2.184 2.176c0.909 0.91 0.265 2.471-1.025 2.471h-6.75c-0.001 0-0.002 0-0.004 0-0.797 0-1.443-0.646-1.443-1.443 0-0.001 0-0.003 0-0.004v0-6.75c0-1.29 1.56-1.935 2.471-1.025l2.181 2.182 6.465-6.461-6.466-6.467-2.18 2.188c-0.91 0.91-2.471 0.265-2.471-1.025v-6.75c0-0.001 0-0.002 0-0.004 0-0.797 0.646-1.443 1.443-1.443 0.001 0 0.003 0 0.004 0h6.75c1.289 0 1.934 1.561 1.025 2.471l-2.182 2.182 6.461 6.461 6.463-6.467-2.183-2.176c-0.909-0.91-0.265-2.471 1.025-2.471h6.75c0.001 0 0.002 0 0.004 0 0.797 0 1.443 0.646 1.443 1.443 0 0.001 0 0.003 0 0.004v-0 6.75c0 1.29-1.56 1.935-2.471 1.025l-2.181-2.182-6.465 6.461 6.466 6.467 2.18-2.182c0.91-0.916 2.471-0.271 2.471 1.018z"></path>
  </symbol>
  <symbol id="icon-pause" viewBox="0 0 28 32">
    <path d="M9.179 29.44h-5.786c-1.597 0-2.893-1.296-2.893-2.893v-21.214c0-1.597 1.296-2.893 2.893-2.893h5.786c1.597 0 2.893 1.296 2.893 2.893v21.214c0 1.597-1.296 2.893-2.893 2.893zM27.5 26.547v-21.214c0-1.597-1.296-2.893-2.893-2.893h-5.786c-1.597 0-2.893 1.296-2.893 2.893v21.214c0 1.597 1.296 2.893 2.893 2.893h5.786c1.597 0 2.893-1.296 2.893-2.893z"></path>
  </symbol>
  <symbol id="icon-download" viewBox="0 0 32 32">
    <path d="M8.8 1.76c-1.92 0-3.52 1.6-3.52 3.52v21.44c0 1.92 1.6 3.52 3.52 3.52h14.24c1.92 0 3.52-1.6 3.52-3.52v-16h-7.2c-0.96 0-1.76-0.8-1.76-1.76v-7.2h-8.8zM19.52 1.76v7.2h7.2l-7.2-7.2zM17.28 14.72v5.76l1.76-1.76c0.48-0.48 1.44-0.48 1.92 0s0.48 1.44 0 1.92l-4 4c-0.48 0.48-1.44 0.48-1.92 0l-4-4c-0.48-0.48-0.48-1.44 0-1.92s1.44-0.48 1.92 0l1.76 1.76v-5.76c0-0.8 0.64-1.28 1.28-1.28s1.28 0.48 1.28 1.28v0z"></path>
  </symbol>
  <symbol id="icon-court" viewBox="0 0 28 32">
    <title>court</title>
    <path d="M5.984 5.922v23.156h16.031v-23.156h-16.031zM3.313 3.25h21.375v28.5h-21.375v-28.5z"></path>
    <path d="M1.531 16.253h24.938v2.672h-24.938v-2.672z"></path>
    <path d="M13.109 28.188h1.781v1.781h-1.781v-1.781z"></path>
    <path d="M15.425 30.503h-2.672v-2.672h2.672v2.672zM13.644 29.613h0.891v-0.891h-0.891v0.891z"></path>
    <path d="M13.109 5.031h1.781v1.781h-1.781v-1.781z"></path>
    <path d="M15.425 7.347h-2.672v-2.672h2.672v2.672zM13.644 6.456h0.891v-0.891h-0.891v0.891z"></path>
  </symbol>
  <symbol id="icon-calendar-solid" viewBox="0 0 28 32">
    <title>calendar-solid</title>
    <path d="M1.164 12.125h25.672c0.4 0 0.727 0.327 0.727 0.727v15.742c0 1.605-1.302 2.906-2.906 2.906h-21.313c-1.605 0-2.906-1.302-2.906-2.906v-15.742c0-0.4 0.327-0.727 0.727-0.727zM27.563 9.461v-2.18c0-1.604-1.302-2.906-2.906-2.906h-2.906v-3.148c0-0.4-0.327-0.727-0.727-0.727h-2.422c-0.4 0-0.727 0.327-0.727 0.727v3.148h-7.75v-3.148c0-0.4-0.327-0.727-0.727-0.727h-2.422c-0.4 0-0.727 0.327-0.727 0.727v3.148h-2.906c-1.605 0-2.906 1.302-2.906 2.906v2.18c0 0.4 0.327 0.727 0.727 0.727h25.672c0.4 0 0.727-0.327 0.727-0.727z"></path>
  </symbol>
  <symbol id="icon-calendar" viewBox="0 0 28 32">
    <title>calendar</title>
    <path d="M24.828 4.188h-2.953v-3.199c0-0.406-0.332-0.738-0.738-0.738h-2.461c-0.406 0-0.738 0.332-0.738 0.738v3.199h-7.875v-3.199c0-0.406-0.332-0.738-0.738-0.738h-2.461c-0.406 0-0.738 0.332-0.738 0.738v3.199h-2.953c-1.63 0-2.953 1.323-2.953 2.953v21.656c0 1.63 1.323 2.953 2.953 2.953h21.656c1.63 0 2.953-1.323 2.953-2.953v-21.656c0-1.63-1.323-2.953-2.953-2.953zM24.459 28.797h-20.918c-0.203 0-0.369-0.166-0.369-0.369v-18.334h21.656v18.334c0 0.203-0.166 0.369-0.369 0.369z"></path>
  </symbol>
  <symbol id="icon-calendar-check" viewBox="0 0 28 32">
    <title>calendar-check</title>
    <path d="M24.828 4.188h-2.953v-3.199c0-0.408-0.331-0.738-0.738-0.738h-2.461c-0.408 0-0.738 0.331-0.738 0.738v3.199h-7.875v-3.199c0-0.408-0.331-0.738-0.738-0.738h-2.461c-0.408 0-0.738 0.331-0.738 0.738v3.199h-2.953c-1.631 0-2.953 1.322-2.953 2.953v21.656c0 1.631 1.322 2.953 2.953 2.953h21.656c1.631 0 2.953-1.322 2.953-2.953v-21.656c0-1.631-1.322-2.953-2.953-2.953zM24.459 28.797h-20.918c-0.204 0-0.369-0.165-0.369-0.369v0-18.334h21.656v18.334c0 0.204-0.165 0.369-0.369 0.369v0zM21.208 16.452l-8.755 8.685c-0.289 0.287-0.757 0.285-1.044-0.004l-4.62-4.657c-0.287-0.289-0.285-0.757 0.004-1.044l1.398-1.387c0.289-0.287 0.757-0.285 1.044 0.004l2.713 2.735 6.834-6.779c0.289-0.287 0.757-0.285 1.044 0.004l1.387 1.398c0.287 0.289 0.285 0.757-0.004 1.044z"></path>
  </symbol>
  <symbol id="icon-calendar-plus" viewBox="0 0 28 32">
    <title>calendar-plus</title>
    <path d="M20.891 18.215v1.477c0 0.406-0.332 0.738-0.738 0.738h-4.676v4.676c0 0.406-0.332 0.738-0.738 0.738h-1.477c-0.406 0-0.738-0.332-0.738-0.738v-4.676h-4.676c-0.406 0-0.738-0.332-0.738-0.738v-1.477c0-0.406 0.332-0.738 0.738-0.738h4.676v-4.676c0-0.406 0.332-0.738 0.738-0.738h1.477c0.406 0 0.738 0.332 0.738 0.738v4.676h4.676c0.406 0 0.738 0.332 0.738 0.738zM27.781 7.141v21.656c0 1.63-1.323 2.953-2.953 2.953h-21.656c-1.63 0-2.953-1.323-2.953-2.953v-21.656c0-1.63 1.323-2.953 2.953-2.953h2.953v-3.199c0-0.406 0.332-0.738 0.738-0.738h2.461c0.406 0 0.738 0.332 0.738 0.738v3.199h7.875v-3.199c0-0.406 0.332-0.738 0.738-0.738h2.461c0.406 0 0.738 0.332 0.738 0.738v3.199h2.953c1.63 0 2.953 1.323 2.953 2.953zM24.828 28.428v-18.334h-21.656v18.334c0 0.203 0.166 0.369 0.369 0.369h20.918c0.203 0 0.369-0.166 0.369-0.369z"></path>
  </symbol>
  <symbol id="icon-calendar-error" viewBox="0 0 28 32">
    <title>calendar-error</title>
    <path d="M19.481 23.419l-1.063 1.063c-0.294 0.294-0.769 0.294-1.063 0l-3.356-3.363-3.356 3.356c-0.294 0.294-0.769 0.294-1.063 0l-1.063-1.063c-0.294-0.294-0.294-0.769 0-1.063l3.356-3.356-3.356-3.356c-0.294-0.294-0.294-0.769 0-1.063l1.063-1.063c0.294-0.294 0.769-0.294 1.063 0l3.356 3.356 3.356-3.356c0.294-0.294 0.769-0.294 1.063 0l1.063 1.063c0.294 0.294 0.294 0.769 0 1.063l-3.363 3.363 3.356 3.356c0.3 0.294 0.3 0.769 0.006 1.063zM28 7v22c0 1.656-1.344 3-3 3h-22c-1.656 0-3-1.344-3-3v-22c0-1.656 1.344-3 3-3h3v-3.25c0-0.412 0.338-0.75 0.75-0.75h2.5c0.412 0 0.75 0.338 0.75 0.75v3.25h8v-3.25c0-0.412 0.337-0.75 0.75-0.75h2.5c0.413 0 0.75 0.338 0.75 0.75v3.25h3c1.656 0 3 1.344 3 3zM25 28.625v-18.625h-22v18.625c0 0.206 0.169 0.375 0.375 0.375h21.25c0.206 0 0.375-0.169 0.375-0.375z"></path>
  </symbol>
  <symbol id="icon-violations" viewBox="0 0 27 32">
    <title>violations</title>
    <path fill="#707070" style="fill: var(--color1, #707070)" d="M9.877 0.939l15.452 4.431c0.823 0.236 1.298 1.094 1.062 1.916l-6.513 22.713c-0.236 0.823-1.094 1.298-1.916 1.062l-15.452-4.431c-0.823-0.236-1.298-1.094-1.062-1.916l6.513-22.713c0.236-0.823 1.094-1.298 1.916-1.062z"></path>
    <path fill="#ababab" style="fill: var(--color2, #ababab)" d="M5.689 0.873l15.914 2.234c0.847 0.119 1.437 0.902 1.319 1.749l-3.284 23.392c-0.119 0.847-0.902 1.437-1.749 1.319l-15.914-2.234c-0.847-0.119-1.437-0.902-1.319-1.749l3.284-23.392c0.119-0.847 0.902-1.437 1.749-1.319z"></path>
    <path fill="#cfcfcf" style="fill: var(--color3, #cfcfcf)" d="M2.033 1.658h15.881c0.856 0 1.549 0.694 1.549 1.549v23.241c0 0.856-0.694 1.549-1.549 1.549h-15.881c-0.856 0-1.549-0.694-1.549-1.549v-23.241c0-0.856 0.694-1.549 1.549-1.549z"></path>
  </symbol>
  <symbol id="icon-bracket" viewBox="0 0 32 32">
    <title>bracket</title>
    <path d="M2.96 1.41h13.674v3.172h-13.674v-3.172z"></path>
    <path d="M14.026 1.41h3.172v29.251h-3.172v-29.251z"></path>
    <path d="M2.96 27.489h13.463v3.172h-13.463v-3.172z"></path>
    <path d="M15.648 14.52h13.392v3.172h-13.392v-3.172z"></path>
  </symbol>
  <symbol id="icon-coins" viewBox="0 0 32 32">
    <title>coins</title>
    <path d="M0.5 25.040v2.585c0 2.137 5.207 3.875 11.625 3.875s11.625-1.738 11.625-3.875v-2.585c-2.501 1.762-7.072 2.585-11.625 2.585s-9.124-0.823-11.625-2.585zM19.875 8.25c6.418 0 11.625-1.738 11.625-3.875s-5.207-3.875-11.625-3.875-11.625 1.738-11.625 3.875 5.207 3.875 11.625 3.875zM0.5 18.688v3.124c0 2.137 5.207 3.875 11.625 3.875s11.625-1.738 11.625-3.875v-3.124c-2.501 2.059-7.078 3.124-11.625 3.124s-9.124-1.066-11.625-3.124zM25.688 19.354c3.469-0.672 5.813-1.919 5.813-3.354v-2.585c-1.405 0.993-3.469 1.671-5.813 2.089v3.851zM12.125 10.188c-6.418 0-11.625 2.168-11.625 4.844s5.207 4.844 11.625 4.844 11.625-2.168 11.625-4.844-5.207-4.844-11.625-4.844zM25.403 13.596c3.633-0.654 6.097-1.938 6.097-3.409v-2.585c-2.149 1.52-5.843 2.337-9.73 2.531 1.786 0.866 3.1 2.028 3.633 3.463z"></path>
  </symbol>
  <symbol id="icon-circle" viewBox="0 0 32 32">
    <path d="M31.5 16c0 8.56-6.94 15.5-15.5 15.5s-15.5-6.94-15.5-15.5c0-8.56 6.94-15.5 15.5-15.5s15.5 6.94 15.5 15.5z"></path>
  </symbol>
  <symbol id="icon-timeline" viewBox="0 0 45 32">
    <path d="M5.069 8.396c0 1.4-1.135 2.535-2.535 2.535s-2.535-1.135-2.535-2.535c0-1.4 1.135-2.535 2.535-2.535s2.535 1.135 2.535 2.535z"></path>
    <path d="M2.535 10.931c-1.4 0-2.535-1.135-2.535-2.535s1.135-2.535 2.535-2.535c1.4 0 2.535 1.135 2.535 2.535v0c0 1.4-1.135 2.535-2.535 2.535v0zM2.535 6.178c-1.225 0-2.218 0.993-2.218 2.218s0.993 2.218 2.218 2.218c1.225 0 2.218-0.993 2.218-2.218v0c0-1.225-0.993-2.218-2.218-2.218v0z"></path>
    <path d="M5.069 22.337c0 1.4-1.135 2.535-2.535 2.535s-2.535-1.135-2.535-2.535c0-1.4 1.135-2.535 2.535-2.535s2.535 1.135 2.535 2.535z"></path>
    <path d="M2.535 24.871c-1.4 0-2.535-1.135-2.535-2.535s1.135-2.535 2.535-2.535c1.4 0 2.535 1.135 2.535 2.535v0c0 1.4-1.135 2.535-2.535 2.535v0zM2.535 20.119c-1.225 0-2.218 0.993-2.218 2.218s0.993 2.218 2.218 2.218c1.225 0 2.218-0.993 2.218-2.218v0c0-1.225-0.993-2.218-2.218-2.218v0z"></path>
    <path d="M1.901 0h1.267v4.119h-1.267v-4.119z"></path>
    <path d="M1.901 12.673h1.267v5.386h-1.267v-5.386z"></path>
    <path d="M1.901 26.614h1.267v5.386h-1.267v-5.386z"></path>
    <path d="M44.040 12.673h-31.927l-3.694-4.261 3.694-4.293h31.927c0.437 0 0.792 0.355 0.792 0.792v0 6.97c0 0.437-0.355 0.792-0.792 0.792v0z"></path>
    <path d="M44.040 12.515c0.35 0 0.634-0.284 0.634-0.634v0-6.97c0-0.35-0.284-0.634-0.634-0.634v0h-31.854l-3.558 4.135 3.558 4.119h31.854zM44.040 12.848h-32l-3.831-4.436 3.831-4.452h32c0.525 0 0.95 0.426 0.95 0.95v0 6.97c0 0.525-0.426 0.95-0.95 0.95v0z"></path>
    <path d="M44.040 26.614h-31.927l-3.694-4.261 3.694-4.293h31.927c0.437 0 0.792 0.355 0.792 0.792v0 6.97c0 0.437-0.355 0.792-0.792 0.792v0z"></path>
    <path d="M44.040 26.455c0.35 0 0.634-0.284 0.634-0.634v0-6.97c0-0.35-0.284-0.634-0.634-0.634v0h-31.854l-3.558 4.119 3.558 4.119h31.854zM44.040 26.772h-32l-3.831-4.436 3.831-4.436h32c0.525 0 0.95 0.426 0.95 0.951v0 6.97c0 0.525-0.426 0.951-0.95 0.951v0z"></path>
  </symbol>
  <symbol id="icon-poule" viewBox="0 0 46 32">
    <path d="M43.688 1.247h-41.437c-0.502 0-0.922 0.42-0.922 0.922v27.553c0 0.502 0.42 0.922 0.922 0.922h41.437c0.515 0 0.922-0.42 0.922-0.922v-27.553c0-0.515-0.42-0.922-0.922-0.922v0zM32.569 15.132h-8.786v-5.315h8.786v5.315zM34.197 9.817h8.786v5.315h-8.786v-5.315zM23.783 8.19v-5.315h8.786v5.315h-8.786zM22.156 8.19h-8.786v-5.315h8.786v5.315zM11.742 15.132h-8.786v-5.315h8.786v5.315zM2.956 16.759h8.786v5.315h-8.786v-5.315zM13.37 16.759h8.786v5.315h-8.786v-5.315zM22.156 23.702v5.315h-8.786v-5.315h8.786zM23.783 23.702h8.786v5.315h-8.786v-5.315zM34.197 16.759h8.786v5.315h-8.786v-5.315zM42.983 8.19h-8.786v-5.315h8.786v5.315zM2.956 23.702h8.786v5.315h-8.786v-5.315z"></path>
  </symbol>
  <symbol id="icon-captain" viewBox="0 0 53 32">
    <path d="M40.105 9.053c0 0.968 0 1.874 0 2.716h9.453l2.105-5.137v-0.253h-11.558c0 0.926 0 1.811 0 2.674v0z"></path>
    <path d="M13.663 9.053c0-0.842 0-1.726 0-2.674h-11.832v0.253l2.211 5.137h9.621c0-0.863 0-1.768 0-2.716v0z"></path>
    <path d="M13.684 14.779h-8.379l2.274 5.389h6.463c-0.021-0.126-0.042-0.232-0.042-0.358-0.189-1.389-0.274-3.032-0.316-5.032v0z"></path>
    <path d="M39.726 20.168h6.295l2.274-5.389h-8.211c-0.042 2-0.126 3.621-0.295 5.032-0.021 0.126-0.042 0.253-0.063 0.358v0z"></path>
    <path d="M14.758 23.032h-5.979l2.274 5.389h8.168c-0.842-0.674-1.621-1.326-2.211-1.916-1.011-1.011-1.747-2.105-2.253-3.474v0z"></path>
    <path d="M34.568 28.421h8l2.274-5.389h-5.811c-0.505 1.347-1.242 2.463-2.253 3.474-0.589 0.589-1.368 1.242-2.211 1.916v0z"></path>
    <path d="M18.905 24.589c2.295 2.274 7.979 6.063 7.979 6.063s5.684-3.789 8-6.063c2.863-2.821 2.526-6.737 2.526-19.053l-10.505-4.421-10.505 4.421c-0.021 12.316-0.358 16.232 2.505 19.053v0z"></path>
  </symbol>
  <symbol id="icon-eye-slash" viewBox="0 0 32 32">
    <path d="M15.955 5.791c1.41 0 2.82 0.384 4.101 0.897l-2.050 1.923c-0.642-0.129-1.41-0.257-2.050-0.257-4.359 0-8.844 4.743-11.023 7.69 0.642 0.897 1.667 2.050 2.691 3.076l-1.794 1.794c-2.436-2.436-3.974-4.87-3.974-4.87s6.408-10.254 14.098-10.254z"></path>
    <path d="M10.444 21.686c1.794 1.281 3.588 2.18 5.511 2.18 4.359 0 8.844-4.743 11.023-7.69-1.281-1.666-3.204-3.846-5.384-5.511l1.794-1.923c3.974 3.076 6.666 7.306 6.666 7.306s-6.41 10.254-14.1 10.254c-2.691 0-5.127-1.281-7.306-2.82l1.794-1.794z"></path>
    <path d="M31 2.814l-1.812-1.812-28.186 28.186 1.812 1.812 28.186-28.186z"></path>
  </symbol>
  <symbol id="icon-down-up-arrow2" viewBox="0 0 16 32">
    <path d="M13.516 14.676h-11.304c-0.702 0-1.267 0.573-1.267 1.281s0.566 1.281 1.267 1.281h11.304c0.702 0 1.267-0.573 1.267-1.281s-0.566-1.281-1.267-1.281v0zM6.93 30.518c0.229 0.229 0.53 0.351 0.83 0.372 0.036 0 0.072 0.007 0.107 0.007s0.072-0.007 0.107-0.007c0.301-0.021 0.601-0.143 0.83-0.372l4.052-4.066c0.508-0.508 0.508-1.332 0-1.84s-1.332-0.508-1.84 0l-1.868 1.876v-6.092c0-0.709-0.573-1.281-1.281-1.281s-1.281 0.573-1.281 1.281v6.092l-1.868-1.876c-0.508-0.508-1.332-0.508-1.84 0s-0.508 1.332 0 1.84l4.052 4.066zM8.798 1.246c-0.229-0.229-0.53-0.351-0.83-0.372-0.036 0-0.072-0.007-0.107-0.007s-0.072 0.007-0.107 0.007c-0.301 0.021-0.601 0.143-0.83 0.372l-4.045 4.059c-0.508 0.508-0.508 1.332 0 1.84s1.332 0.508 1.84 0l1.868-1.876v6.092c0 0.709 0.573 1.281 1.281 1.281s1.281-0.573 1.281-1.281v-6.092l1.868 1.876c0.508 0.508 1.332 0.508 1.84 0s0.508-1.332 0-1.84l-4.059-4.059z"></path>
  </symbol>
  <symbol id="icon-map" viewBox="0 0 41 32">
    <path d="M34.164 18.106l6.235 12.938c0.254 0.526-0.014 0.956-0.595 0.956h-39.116c-0.579 0-0.847-0.43-0.595-0.956l6.235-12.938c0.119-0.215 0.338-0.361 0.593-0.375l5.356-0c0.196 0.012 0.37 0.098 0.495 0.23 0.363 0.423 0.732 0.837 1.101 1.248s0.702 0.781 1.051 1.19h-6.346c-0.257 0.014-0.476 0.16-0.593 0.371l-4.137 8.569h32.797l-4.123-8.571c-0.119-0.215-0.338-0.361-0.593-0.375l-6.366-0c0.349-0.397 0.7-0.793 1.051-1.19s0.742-0.823 1.105-1.247c0.126-0.132 0.299-0.218 0.492-0.23l5.357-0c0.257 0.014 0.476 0.16 0.593 0.371zM29.416 9.265c0 7.070-5.826 8.395-8.567 15.189-0.098 0.245-0.333 0.415-0.608 0.415s-0.51-0.17-0.606-0.411c-2.475-6.142-7.454-7.812-8.408-13.27-0.938-5.366 2.745-10.634 8.121-11.147 5.468-0.522 10.066 3.808 10.066 9.224zM25.087 9.265c-0.024-2.658-2.184-4.803-4.845-4.803-2.676 0-4.845 2.169-4.845 4.845s2.169 4.845 4.845 4.845c2.679-0.014 4.845-2.188 4.845-4.869 0-0.006 0-0.013-0-0.019z"></path>
  </symbol>
  <symbol id="icon-sort-asc-desc" viewBox="0 0 42 32">
    <path d="M31.195 27.504h-4.496c-0.007-0-0.016-0.001-0.025-0.001-0.298 0-0.539 0.241-0.539 0.539 0 0.009 0 0.017 0.001 0.026l-0 3.371c-0 0.007-0.001 0.016-0.001 0.025 0 0.298 0.241 0.539 0.539 0.539 0.009 0 0.017-0 0.026-0.001l4.492 0c0.007 0 0.014 0 0.022 0 0.298 0 0.539-0.241 0.539-0.539 0-0.009-0-0.017-0.001-0.026l0-3.371c0-0.007 0.001-0.016 0.001-0.025 0-0.298-0.241-0.539-0.539-0.539-0.008 0-0.016 0-0.023 0z"></path>
    <path d="M22.766 25.258h-3.37v-24.156c0-0.007 0.001-0.016 0.001-0.025 0-0.298-0.241-0.539-0.539-0.539-0.009 0-0.017 0-0.026 0.001l-3.368-0c-0.007-0-0.016-0.001-0.025-0.001-0.298 0-0.539 0.241-0.539 0.539 0 0.009 0 0.017 0.001 0.026l-0 24.155h-3.37c-0.013-0.001-0.029-0.002-0.045-0.002-0.228 0-0.421 0.145-0.493 0.348-0.031 0.068-0.048 0.144-0.048 0.224 0 0.155 0.066 0.295 0.171 0.393l5.63 5.619c0.107 0.096 0.248 0.155 0.403 0.159 0.001 0 0.002 0 0.003 0 0.156 0 0.297-0.060 0.402-0.159l5.6-5.6c0.103-0.111 0.168-0.257 0.175-0.419 0-0.009 0.001-0.017 0.001-0.026 0-0.298-0.241-0.539-0.539-0.539-0.009 0-0.017 0-0.026 0.001z"></path>
    <path d="M34.564 18.516h-7.865c-0.007-0-0.014-0-0.022-0-0.298 0-0.539 0.241-0.539 0.539 0 0.009 0 0.017 0.001 0.026l-0 3.371c-0 0.007-0.001 0.016-0.001 0.025 0 0.298 0.241 0.539 0.539 0.539 0.008 0 0.016-0 0.023-0l7.864 0c0.007 0 0.016 0.001 0.025 0.001 0.298 0 0.539-0.241 0.539-0.539 0-0.009-0-0.017-0.001-0.026l0-3.371c0-0.007 0.001-0.016 0.001-0.025 0-0.298-0.241-0.539-0.539-0.539-0.009 0-0.017 0-0.026 0.001z"></path>
    <path d="M41.71 0.698c-0.098-0.098-0.233-0.159-0.383-0.159-0.008 0-0.015 0-0.023 0l-14.606-0c-0.007-0-0.016-0.001-0.025-0.001-0.298 0-0.539 0.241-0.539 0.539 0 0.009 0 0.017 0.001 0.026l-0 3.368c-0 0.007-0 0.014-0 0.022 0 0.298 0.241 0.539 0.539 0.539 0.009 0 0.017-0 0.026-0.001l14.606 0c0.007 0 0.016 0.001 0.025 0.001 0.298 0 0.539-0.241 0.539-0.539 0-0.008-0-0.016-0.001-0.023l0-3.369c0-0.006 0-0.014 0-0.022 0-0.15-0.061-0.285-0.159-0.382z"></path>
    <path d="M37.934 9.527h-11.235c-0.007-0-0.014-0-0.022-0-0.298 0-0.539 0.241-0.539 0.539 0 0.009 0 0.017 0.001 0.026l-0 3.377c-0 0.007-0.001 0.016-0.001 0.025 0 0.298 0.241 0.539 0.539 0.539 0.008 0 0.016-0 0.023-0.001l11.234 0c0.007 0 0.016 0.001 0.025 0.001 0.298 0 0.539-0.241 0.539-0.539 0-0.009-0-0.017-0.001-0.026l0-3.377c0-0.007 0.001-0.016 0.001-0.025 0-0.298-0.241-0.539-0.539-0.539-0.009 0-0.017 0-0.026 0.001z"></path>
    <path d="M0.563 6.734h3.37v24.156c-0.001 0.010-0.001 0.021-0.001 0.033 0 0.298 0.241 0.539 0.539 0.539 0.007 0 0.014-0 0.021-0l3.374 0c0.007 0 0.016 0.001 0.025 0.001 0.298 0 0.539-0.241 0.539-0.539 0-0.009-0-0.017-0.001-0.026l0-24.163h3.37c0.013 0.001 0.029 0.002 0.045 0.002 0.228 0 0.421-0.145 0.493-0.348 0.031-0.068 0.048-0.144 0.048-0.224 0-0.155-0.066-0.295-0.171-0.393l-5.63-5.611c-0.107-0.096-0.248-0.155-0.403-0.159-0.001-0-0.002-0-0.003-0-0.156 0-0.297 0.060-0.402 0.159l-5.594 5.6c-0.103 0.111-0.168 0.257-0.175 0.419-0 0.006-0 0.012-0 0.018 0 0.298 0.241 0.539 0.539 0.539 0.007 0 0.013-0 0.020-0z"></path>
  </symbol>
  <symbol id="icon-friend-add" viewBox="0 0 32 32">
    <path d="M1.463 27.976h12.253c1.878 2.375 4.784 3.902 8.039 3.902 5.649 0 10.244-4.595 10.244-10.244s-4.595-10.244-10.244-10.244c-3.365 0-6.356 1.631-8.224 4.143-0.757-0.159-1.531-0.241-2.312-0.241-6.186 0-11.22 5.033-11.22 11.22 0 0.808 0.655 1.463 1.463 1.463zM21.756 14.317c4.035 0 7.317 3.282 7.317 7.317s-3.282 7.317-7.317 7.317-7.317-3.282-7.317-7.317 3.282-7.317 7.317-7.317z"></path>
    <path d="M11.22 0.122c-3.376 0-6.122 2.746-6.122 6.122s2.746 6.122 6.122 6.122c3.376 0 6.122-2.746 6.122-6.122s-2.746-6.122-6.122-6.122z"></path>
    <path d="M18.829 23.098h1.463v1.463c0 0.808 0.655 1.463 1.463 1.463s1.463-0.655 1.463-1.463v-1.463h1.463c0.808 0 1.463-0.655 1.463-1.463s-0.655-1.463-1.463-1.463h-1.463v-1.463c0-0.808-0.655-1.463-1.463-1.463s-1.463 0.655-1.463 1.463v1.463h-1.463c-0.808 0-1.463 0.655-1.463 1.463s0.655 1.463 1.463 1.463z"></path>
  </symbol>
  <symbol id="icon-friend-block" viewBox="0 0 32 32">
    <path d="M21.756 11.39c-3.365 0-6.356 1.631-8.224 4.143-0.757-0.159-1.531-0.241-2.312-0.241-6.187 0-11.22 5.033-11.22 11.22 0 0.808 0.655 1.463 1.463 1.463h12.253c1.878 2.375 4.783 3.902 8.039 3.902 5.648 0 10.244-4.595 10.244-10.244s-4.596-10.244-10.244-10.244zM21.756 28.951c-4.035 0-7.317-3.282-7.317-7.317s3.282-7.317 7.317-7.317c4.035 0 7.317 3.282 7.317 7.317s-3.283 7.317-7.317 7.317z"></path>
    <path d="M24.683 20.171h-5.854c-0.808 0-1.463 0.655-1.463 1.463s0.655 1.463 1.463 1.463h5.854c0.808 0 1.463-0.655 1.463-1.463s-0.655-1.463-1.463-1.463z"></path>
    <path d="M17.341 6.244c0-3.376-2.746-6.122-6.122-6.122s-6.122 2.746-6.122 6.122 2.746 6.122 6.122 6.122c3.376 0 6.122-2.746 6.122-6.122z"></path>
  </symbol>
  <symbol id="icon-friend-remove" viewBox="0 0 32 32">
    <path d="M1.463 27.976h12.253c1.878 2.375 4.784 3.902 8.039 3.902 5.649 0 10.244-4.595 10.244-10.244s-4.595-10.244-10.244-10.244c-3.365 0-6.356 1.631-8.224 4.143-0.757-0.159-1.531-0.241-2.313-0.241-6.186 0-11.22 5.033-11.22 11.22 0 0.808 0.655 1.463 1.463 1.463zM21.756 14.317c4.035 0 7.317 3.282 7.317 7.317s-3.282 7.317-7.317 7.317-7.317-3.282-7.317-7.317 3.282-7.317 7.317-7.317z"></path>
    <path d="M18.652 24.738c0.286 0.286 0.66 0.429 1.035 0.429s0.749-0.143 1.035-0.429l1.035-1.035 1.035 1.035c0.286 0.286 0.66 0.429 1.035 0.429s0.749-0.143 1.035-0.429c0.572-0.572 0.572-1.498 0-2.070l-1.035-1.035 1.035-1.035c0.572-0.572 0.572-1.498 0-2.070s-1.498-0.572-2.070 0l-1.035 1.035-1.035-1.035c-0.571-0.572-1.498-0.572-2.070 0s-0.572 1.498 0 2.070l1.035 1.035-1.035 1.035c-0.572 0.572-0.572 1.498 0 2.070z"></path>
    <path d="M11.22 0.122c-3.376 0-6.122 2.746-6.122 6.122s2.746 6.122 6.122 6.122c3.376 0 6.122-2.746 6.122-6.122s-2.746-6.122-6.122-6.122z"></path>
  </symbol>
  <symbol id="icon-friends" viewBox="0 0 32 32">
    <path d="M4.504 7.033c0 2.653 2.059 4.832 4.662 5.028-0.828-1.491-1.3-3.205-1.3-5.028s0.472-3.537 1.3-5.028c-2.603 0.196-4.662 2.375-4.662 5.028z"></path>
    <path d="M11.326 15.623c-0.579-0.121-1.175-0.184-1.778-0.184-4.797 0-8.7 3.903-8.7 8.7 0 0.928 0.753 1.681 1.681 1.681h0.115c1.3-4.509 4.505-8.218 8.682-10.198z"></path>
    <path d="M18.263 14.067c3.878 0 7.033-3.155 7.033-7.033s-3.155-7.033-7.033-7.033c-2.364 0-4.458 1.174-5.734 2.968-0.817 1.149-1.3 2.551-1.3 4.065s0.483 2.917 1.3 4.065c1.276 1.794 3.37 2.968 5.734 2.968z"></path>
    <path d="M31.152 30.319c0-7.107-5.782-12.89-12.89-12.89-0.969 0-1.913 0.108-2.821 0.312-4.273 0.958-7.75 4.042-9.259 8.080-0.523 1.401-0.81 2.916-0.81 4.498 0 0.928 0.753 1.681 1.681 1.681h22.417c0.929 0 1.681-0.753 1.681-1.681z"></path>
  </symbol>
  <symbol id="icon-customer-service" viewBox="0 0 32 32">
    <path d="M25.032 20.679c-1.267 1.741-3.32 2.874-5.633 2.874h-3.245c-1.121 0-2.076-0.712-2.437-1.708-0.446-0.133-0.884-0.306-1.311-0.518-0.904-0.449-1.725-1.058-2.448-1.812-4.689 1.030-8.198 5.208-8.198 10.206v0.653c0 0.898 0.728 1.626 1.626 1.626h25.229c0.898 0 1.626-0.728 1.626-1.626v-0.653c-0-3.861-2.094-7.233-5.209-9.042z"></path>
    <path d="M8.229 16.163c0.699 0 1.307-0.387 1.622-0.959 0.008 0.023 0.017 0.045 0.025 0.068 0.002 0.007 0.005 0.014 0.008 0.020 0.739 1.946 2.178 3.577 4.075 4.29 0.459-0.729 1.27-1.214 2.195-1.214h3.245c0.324 0 0.625-0.091 0.889-0.239 0.444-0.248 0.843-0.877 1.048-1.211 0.33-0.534 0.585-1.099 0.811-1.715 0.127 0.231 0.302 0.432 0.512 0.59v0.796c0 1.798-1.463 3.261-3.261 3.261h-3.245c-0.614 0-1.111 0.497-1.111 1.111s0.497 1.111 1.111 1.111h3.245c3.023 0 5.483-2.46 5.483-5.483v-0.796c0.45-0.338 0.741-0.876 0.741-1.481v-4.634c0-0.618-0.303-1.165-0.769-1.501-0.361-4.569-4.194-8.176-8.854-8.176s-8.493 3.607-8.854 8.176c-0.466 0.336-0.769 0.883-0.769 1.501v4.634c0 1.026 0.833 1.852 1.852 1.852zM16 2.222c3.45 0 6.295 2.636 6.627 6-0.218 0.172-0.397 0.391-0.52 0.643-1.048-2.735-3.388-4.639-6.107-4.639-2.777 0-5.080 1.97-6.103 4.628-0.001 0.004-0.003 0.007-0.004 0.011-0.123-0.252-0.302-0.471-0.52-0.643 0.333-3.364 3.178-6 6.628-6z"></path>
  </symbol>
  <symbol id="icon-listing-option" viewBox="0 0 32 32">
    <path d="M30.176 9.776h-28.453v-4.936h28.453z"></path>
    <path d="M30.176 18.742h-28.453v-4.936h28.453z"></path>
    <path d="M30.176 27.709h-28.453v-4.936h28.453z"></path>
  </symbol>
  <symbol id="icon-sort-desc" viewBox="0 0 32 32">
    <path d="M20.864 27.428h-4.571c-0.167 0-0.304 0.053-0.411 0.161s-0.161 0.244-0.161 0.411v3.428c0 0.167 0.053 0.304 0.161 0.411s0.244 0.16 0.411 0.16h4.571c0.167 0 0.304-0.053 0.41-0.16s0.16-0.244 0.16-0.411v-3.428c0-0.167-0.053-0.304-0.16-0.411s-0.244-0.161-0.41-0.161z"></path>
    <path d="M12.293 25.143h-3.429v-24.571c0-0.167-0.053-0.304-0.161-0.411s-0.244-0.161-0.411-0.161h-3.429c-0.167 0-0.304 0.053-0.411 0.161s-0.161 0.244-0.161 0.411v24.571h-3.429c-0.262 0-0.44 0.119-0.536 0.357-0.095 0.226-0.053 0.435 0.125 0.625l5.714 5.714c0.131 0.107 0.268 0.16 0.411 0.16 0.155 0 0.292-0.053 0.411-0.16l5.696-5.697c0.119-0.143 0.179-0.286 0.179-0.428 0-0.167-0.054-0.304-0.161-0.412-0.107-0.107-0.244-0.16-0.411-0.16z"></path>
    <path d="M24.293 18.286h-8c-0.167 0-0.304 0.053-0.411 0.16s-0.161 0.244-0.161 0.41v3.429c0 0.166 0.053 0.304 0.161 0.41s0.244 0.16 0.411 0.16h8c0.167 0 0.304-0.053 0.41-0.16s0.161-0.244 0.161-0.41v-3.429c0-0.166-0.054-0.304-0.161-0.41s-0.244-0.16-0.41-0.16z"></path>
    <path d="M31.561 0.161c-0.107-0.107-0.244-0.161-0.411-0.161h-14.857c-0.167 0-0.304 0.053-0.411 0.161s-0.161 0.244-0.161 0.411v3.429c0 0.167 0.053 0.304 0.161 0.411s0.244 0.161 0.411 0.161h14.857c0.167 0 0.304-0.053 0.411-0.161s0.16-0.244 0.16-0.411v-3.429c0-0.167-0.053-0.304-0.16-0.411z"></path>
    <path d="M27.721 9.143h-11.429c-0.167 0-0.304 0.053-0.411 0.161s-0.161 0.244-0.161 0.411v3.428c0 0.167 0.053 0.304 0.161 0.411s0.244 0.161 0.411 0.161h11.429c0.167 0 0.304-0.053 0.411-0.161s0.16-0.244 0.16-0.411v-3.428c0-0.167-0.053-0.304-0.16-0.411s-0.245-0.161-0.411-0.161z"></path>
  </symbol>
  <symbol id="icon-sort-asc" viewBox="0 0 32 32">
    <path d="M11.136 4.572h4.571c0.167 0 0.304-0.053 0.411-0.161s0.161-0.244 0.161-0.411v-3.428c0-0.167-0.053-0.304-0.161-0.411s-0.244-0.161-0.411-0.161h-4.571c-0.167 0-0.304 0.053-0.411 0.161s-0.16 0.244-0.16 0.411v3.428c0 0.167 0.053 0.304 0.16 0.411s0.244 0.161 0.411 0.161z"></path>
    <path d="M19.707 6.857h3.429v24.571c0 0.167 0.053 0.304 0.161 0.411s0.244 0.161 0.411 0.161h3.429c0.167 0 0.304-0.053 0.411-0.161s0.161-0.244 0.161-0.411v-24.571h3.429c0.262 0 0.44-0.119 0.536-0.357 0.095-0.226 0.053-0.435-0.125-0.625l-5.714-5.714c-0.131-0.107-0.268-0.16-0.411-0.16-0.155 0-0.292 0.053-0.411 0.16l-5.696 5.697c-0.119 0.143-0.179 0.286-0.179 0.428 0 0.167 0.054 0.304 0.161 0.412 0.107 0.107 0.244 0.16 0.411 0.16z"></path>
    <path d="M7.707 13.714h8c0.167 0 0.304-0.053 0.411-0.161s0.161-0.244 0.161-0.411v-3.429c0-0.166-0.053-0.304-0.161-0.411s-0.244-0.161-0.411-0.161h-8c-0.167 0-0.304 0.053-0.41 0.161s-0.161 0.244-0.161 0.411v3.429c0 0.166 0.054 0.304 0.161 0.411s0.244 0.161 0.41 0.161z"></path>
    <path d="M0.439 31.839c0.107 0.107 0.244 0.161 0.411 0.161h14.857c0.167 0 0.304-0.053 0.411-0.161s0.161-0.244 0.161-0.411v-3.429c0-0.167-0.053-0.304-0.161-0.411s-0.244-0.161-0.411-0.161h-14.857c-0.167 0-0.304 0.053-0.411 0.161s-0.161 0.244-0.161 0.411v3.429c-0 0.167 0.053 0.304 0.16 0.411z"></path>
    <path d="M4.279 22.857h11.429c0.167 0 0.304-0.053 0.411-0.161s0.161-0.244 0.161-0.411v-3.428c0-0.167-0.053-0.304-0.161-0.411s-0.244-0.161-0.411-0.161h-11.429c-0.167 0-0.304 0.053-0.411 0.161s-0.16 0.244-0.16 0.411v3.428c0 0.167 0.053 0.304 0.16 0.411s0.245 0.161 0.411 0.161z"></path>
  </symbol>
  <symbol id="icon-export" viewBox="0 0 32 32">
    <title>Export</title>
    <path d="M31.635 8.981l-7.384-7.385c-0.244-0.244-0.533-0.365-0.866-0.365-0.153 0-0.314 0.032-0.48 0.096-0.5 0.218-0.75 0.596-0.75 1.135v3.693h-3.077c-1.359 0-2.619 0.071-3.779 0.212s-2.183 0.336-3.067 0.587c-0.885 0.25-1.683 0.561-2.394 0.933s-1.317 0.766-1.817 1.183c-0.5 0.417-0.939 0.891-1.317 1.423s-0.679 1.054-0.904 1.567c-0.224 0.513-0.404 1.077-0.538 1.692s-0.224 1.192-0.269 1.731c-0.045 0.538-0.067 1.122-0.067 1.75 0 0.718 0.112 1.5 0.337 2.347s0.471 1.577 0.74 2.192c0.269 0.615 0.587 1.253 0.952 1.913s0.618 1.099 0.76 1.317c0.141 0.218 0.276 0.417 0.404 0.596 0.128 0.167 0.295 0.25 0.5 0.25 0.052 0 0.128-0.013 0.231-0.038 0.295-0.141 0.423-0.359 0.384-0.654-0.577-4.308-0.102-7.34 1.423-9.096 1.475-1.679 4.282-2.519 8.423-2.519h3.077v3.692c0 0.539 0.25 0.917 0.75 1.135 0.166 0.064 0.327 0.096 0.48 0.096 0.346 0 0.635-0.122 0.866-0.365l7.385-7.385c0.243-0.244 0.365-0.532 0.365-0.865s-0.122-0.622-0.365-0.865z"></path>
    <path d="M26.673 19.692c-0.244-0.103-0.468-0.051-0.673 0.154-0.333 0.308-0.68 0.545-1.039 0.712-0.231 0.128-0.346 0.314-0.346 0.558v4.116c0 0.846-0.301 1.57-0.904 2.173s-1.327 0.904-2.173 0.904h-16c-0.846 0-1.571-0.301-2.173-0.904s-0.904-1.327-0.904-2.173v-16c0-0.846 0.301-1.57 0.904-2.173s1.327-0.904 2.173-0.904h2.154c0.077 0 0.18-0.026 0.308-0.077 0.718-0.436 1.57-0.821 2.558-1.154 0.333-0.064 0.5-0.269 0.5-0.615 0-0.167-0.061-0.311-0.183-0.433s-0.266-0.182-0.433-0.182h-4.904c-1.526 0-2.83 0.542-3.914 1.625s-1.625 2.388-1.625 3.913v16c0 1.526 0.542 2.83 1.625 3.914s2.388 1.625 3.914 1.625h16c1.525 0 2.83-0.542 3.913-1.625s1.625-2.388 1.625-3.914v-4.981c-0-0.256-0.135-0.442-0.404-0.558z"></path>
  </symbol>
  <symbol id="icon-play-arrow" viewBox="0 0 32 32">
    <path class="path1" d="M3.429 0v32l25.143-16z"></path>
  </symbol>
  <symbol id="icon-block" viewBox="0 0 33 32">
    <path class="path1" d="M17.132 1.723c-7.975 0-14.425 6.449-14.425 14.425 0 7.926 6.449 14.375 14.425 14.375 7.926 0 14.375-6.449 14.375-14.375 0-7.975-6.449-14.425-14.375-14.425v0zM5.809 16.148c0-6.252 5.071-11.323 11.323-11.323 2.708 0 5.218 0.935 7.138 2.56-0.098 0.049-0.197 0.148-0.295 0.246l-15.655 15.606c-1.575-1.92-2.511-4.431-2.511-7.089v0zM17.132 27.422c-2.412 0-4.677-0.788-6.498-2.068l15.557-15.557c0.049-0.049 0.098-0.148 0.148-0.197 1.329 1.871 2.068 4.086 2.068 6.548 0 6.203-5.071 11.274-11.274 11.274v0z"></path>
  </symbol>
  <symbol id="icon-external-link" viewBox="0 0 32 32">
    <title>External link</title>
    <path d="M24.571 18.285h-1.143c-0.167 0-0.304 0.053-0.41 0.161s-0.161 0.244-0.161 0.41v5.714c0 0.786-0.28 1.458-0.839 2.018s-1.232 0.839-2.018 0.839h-14.857c-0.786 0-1.458-0.28-2.018-0.839s-0.839-1.232-0.839-2.018v-14.857c0-0.786 0.28-1.458 0.839-2.018s1.232-0.839 2.018-0.839h12.571c0.167 0 0.304-0.054 0.411-0.161s0.16-0.244 0.16-0.411v-1.143c0-0.167-0.053-0.304-0.16-0.41s-0.244-0.161-0.411-0.161h-12.571c-1.417 0-2.628 0.503-3.634 1.509s-1.509 2.217-1.509 3.634v14.857c0 1.416 0.503 2.628 1.509 3.634s2.217 1.509 3.634 1.509h14.857c1.416 0 2.628-0.503 3.634-1.509s1.509-2.217 1.509-3.634v-5.714c0-0.167-0.054-0.304-0.161-0.411s-0.244-0.161-0.411-0.161z"></path>
    <path d="M31.66 2.625c-0.226-0.226-0.494-0.339-0.804-0.339h-9.143c-0.309 0-0.577 0.113-0.804 0.339s-0.34 0.494-0.34 0.804 0.113 0.577 0.34 0.804l3.143 3.143-11.643 11.643c-0.119 0.119-0.179 0.256-0.179 0.41s0.060 0.292 0.179 0.411l2.036 2.035c0.119 0.119 0.256 0.178 0.411 0.178s0.292-0.059 0.411-0.178l11.643-11.643 3.143 3.143c0.226 0.226 0.494 0.339 0.804 0.339s0.577-0.113 0.804-0.339c0.226-0.226 0.339-0.494 0.339-0.804v-9.143c-0-0.31-0.113-0.577-0.34-0.804z"></path>
  </symbol>
  <symbol id="icon-sort" viewBox="0 0 32 32">
    <path class="path1" d="M25.6 12.8h-19.2l9.6-12.8z"></path>
    <path class="path2" d="M6.4 19.2h19.2l-9.6 12.8z"></path>
  </symbol>
  <symbol id="icon-photo-camera" viewBox="0 0 32 32">
    <path class="path1" d="M16 12.8c-2.651 0-4.8 2.15-4.8 4.8s2.149 4.8 4.8 4.8c2.651 0 4.8-2.149 4.8-4.8s-2.149-4.8-4.8-4.8zM28.8 8h-3.84c-0.528 0-1.097-0.41-1.264-0.911l-0.993-2.979c-0.167-0.501-0.736-0.91-1.264-0.91h-10.88c-0.528 0-1.097 0.41-1.264 0.911l-0.993 2.979c-0.167 0.501-0.736 0.91-1.264 0.91h-3.84c-1.76 0-3.2 1.44-3.2 3.2v14.4c0 1.76 1.44 3.2 3.2 3.2h25.6c1.76 0 3.2-1.44 3.2-3.2v-14.4c0-1.76-1.44-3.2-3.2-3.2zM16 25.6c-4.418 0-8-3.582-8-8s3.582-8 8-8c4.418 0 8 3.582 8 8s-3.582 8-8 8zM27.68 13.438c-0.618 0-1.12-0.501-1.12-1.12s0.502-1.12 1.12-1.12c0.619 0 1.12 0.502 1.12 1.12s-0.501 1.12-1.12 1.12z"></path>
  </symbol>
  <symbol id="icon-unlock" viewBox="0 0 38 32">
    <path class="path1" d="M34.8 3c-2-2-4.4-3-7.2-3s-5.2 1-7.2 3c-2 2-3 4.4-3 7.2v4.4h-15.2c-0.6 0-1.1 0.2-1.5 0.6-0.5 0.4-0.7 0.9-0.7 1.5v13.1c0 0.6 0.2 1.1 0.6 1.5 0.5 0.5 1 0.7 1.6 0.7h21.8c0.6 0 1.1-0.2 1.5-0.6s0.6-0.9 0.6-1.5v-13.2c0-0.6-0.2-1.1-0.6-1.5s-0.9-0.6-1.5-0.6h-2.2v-4.4c0-1.6 0.6-3 1.7-4.1s2.5-1.7 4.1-1.7c1.6 0 3 0.6 4.1 1.7s1.7 2.5 1.7 4.1v5.8c0 0.4 0.1 0.7 0.4 1s0.6 0.4 1 0.4h1.5c0.4 0 0.7-0.1 1-0.4s0.4-0.6 0.4-1v-5.8c0.1-2.8-0.9-5.2-2.9-7.2z"></path>
  </symbol>
  <symbol id="icon-share" viewBox="0 0 32 32">
    <title>Share</title>
    <path class="path1" d="M25.637 22.62c-1.22 0-2.312 0.479-3.144 1.233l-11.457-6.664c0.083-0.369 0.147-0.741 0.147-1.125s-0.065-0.755-0.147-1.125l11.328-6.601c0.864 0.8 2.007 1.3 3.273 1.3 2.671 0 4.823-2.148 4.823-4.819 0-2.665-2.153-4.819-4.823-4.819-2.665 0-4.819 2.153-4.819 4.817 0 0.389 0.065 0.755 0.147 1.125l-11.328 6.607c-0.865-0.804-2.007-1.303-3.275-1.303-2.671 0-4.823 2.152-4.823 4.817s2.152 4.819 4.823 4.819c1.267 0 2.409-0.5 3.273-1.3l11.437 6.679c-0.079 0.34-0.128 0.695-0.128 1.048 0 2.587 2.108 4.691 4.691 4.691 2.585 0 4.695-2.103 4.695-4.691s-2.108-4.689-4.693-4.689z"></path>
  </symbol>
  <symbol id="icon-error" viewBox="0 0 32 32">
    <path class="path1" d="M15.957 0.265c-8.67 0-15.692 7.022-15.692 15.692s7.022 15.692 15.692 15.692 15.692-7.029 15.692-15.692-7.029-15.692-15.692-15.692zM13.899 8.339c0-1.251 1.019-2.27 2.27-2.27s2.27 1.019 2.27 2.27v9.080c0 1.258-1.019 2.27-2.27 2.27s-2.27-1.013-2.27-2.27v-9.080zM16.169 21.927c1.251 0 2.27 1.019 2.27 2.27s-1.019 2.27-2.27 2.27-2.27-1.019-2.27-2.27c0-1.258 1.013-2.27 2.27-2.27z"></path>
  </symbol>
  <symbol id="icon-eye" viewBox="0 0 32 32">
    <path d="M30.438 16c0 0.433-0.144 0.722-0.289 1.155-1.444 2.454-3.465 4.476-6.064 5.919s-5.197 2.166-8.085 2.166-5.486-0.722-8.085-2.31-4.62-3.465-6.064-5.919c-0.144-0.289-0.289-0.578-0.289-1.011s0.144-0.722 0.289-1.155c1.444-2.454 3.465-4.476 6.064-5.919s5.197-2.166 8.085-2.166 5.486 0.722 8.085 2.31 4.62 3.465 6.064 5.919c0.144 0.289 0.289 0.578 0.289 1.011zM28.416 16c-1.588-2.599-3.609-4.476-6.064-5.631 0.578 1.011 0.866 2.31 0.866 3.609 0 2.021-0.722 3.754-2.166 5.053s-3.176 2.166-5.053 2.166-3.754-0.722-5.053-2.166c-1.444-1.444-2.166-3.032-2.166-5.053 0-1.299 0.289-2.454 1.011-3.609-2.454 1.155-4.476 3.032-6.208 5.631 1.444 2.166 3.176 3.898 5.342 5.197s4.62 2.021 7.074 2.021 4.909-0.722 6.93-2.021c2.166-1.299 4.043-3.032 5.486-5.197v0zM16.578 10.369c0.144-0.144 0.289-0.289 0.289-0.578s-0.144-0.433-0.289-0.578c-0.144-0.144-0.289-0.289-0.578-0.289-1.299 0-2.454 0.433-3.465 1.444s-1.444 2.166-1.444 3.465c0 0.289 0.144 0.433 0.289 0.578s0.289 0.289 0.433 0.289c0.289 0 0.433-0.144 0.578-0.289s0.289-0.289 0.289-0.578c0-0.866 0.289-1.732 1.011-2.31 0.722-0.722 1.444-1.011 2.31-1.011 0.144 0.144 0.433 0 0.578-0.144v0z"></path>
  </symbol>
  <symbol id="icon-phone" viewBox="0 0 1024 1024">
    <path class="path1" d="M1007.419 807.109c0 12.626-2.103 28.617-6.734 48.819s-9.679 35.772-14.729 47.557c-9.679 23.146-37.878 47.557-84.592 73.227-43.349 23.567-86.274 35.352-128.781 35.352-12.626 0-24.409-0.841-36.193-2.526s-25.252-4.629-39.981-8.838c-14.729-4.209-25.673-7.576-32.825-10.1s-19.779-7.156-38.299-14.308c-18.517-6.734-29.881-10.941-34.090-12.626-45.452-15.994-85.853-35.352-121.205-57.657-58.919-36.614-119.943-86.274-183.071-149.404s-112.788-124.152-149.404-183.071c-22.305-35.352-41.243-75.754-57.657-121.205-1.262-4.209-5.47-15.572-12.626-34.090-6.734-18.517-11.785-31.143-14.308-38.299s-5.891-18.097-10.1-32.825c-4.209-14.729-7.156-28.196-8.838-39.981s-2.526-23.987-2.526-36.193c0-42.508 11.785-85.433 35.352-128.781 25.673-46.715 50.501-74.912 73.227-84.592 11.364-5.050 27.355-10.1 47.557-14.729s36.193-6.734 48.819-6.734c6.312 0 11.364 0.841 14.729 2.103 8.417 2.947 20.623 20.202 36.614 52.607 5.050 8.838 12.206 21.043 20.623 37.455 8.838 15.994 16.835 30.723 24.409 43.769s14.729 25.673 21.464 37.034c1.262 1.682 5.47 7.576 12.206 17.255s11.785 18.097 14.729 24.409c3.368 6.734 5.050 13.467 5.050 19.779 0 9.259-6.734 20.623-19.779 34.511s-27.355 26.514-42.928 38.299c-15.572 11.364-29.881 23.987-42.928 36.614-13.047 13.047-19.779 23.567-19.779 31.984 0 4.209 1.262 9.259 3.368 15.572s4.209 10.941 5.891 14.308c1.682 3.368 5.050 8.838 9.679 16.414 5.050 7.997 7.576 12.206 7.997 13.047 34.931 63.127 75.333 117.417 120.364 162.872 45.452 45.452 99.32 85.433 162.872 120.364 0.841 0.421 5.47 2.947 13.047 7.997 7.997 5.050 13.467 7.997 16.414 9.679 3.368 1.682 7.997 3.788 14.308 5.891s11.364 3.368 15.572 3.368c8.417 0 18.938-6.734 31.984-19.779s25.252-27.355 36.614-42.928c11.364-15.572 24.409-29.881 38.299-42.928s25.252-19.779 34.511-19.779c6.312 0 13.047 1.682 19.779 5.050s14.729 7.997 24.409 14.729c9.679 6.734 15.572 10.941 17.255 12.206 11.364 6.734 23.987 13.888 37.034 21.464s27.776 15.572 43.769 24.409c15.994 8.838 28.617 15.572 37.455 20.623 32.405 15.994 49.66 28.196 52.607 36.614 2.947 4.629 3.368 9.679 3.368 15.994z"></path>
  </symbol>
  <symbol id="icon-user" viewBox="0 0 32 32">
    <path d="M16 16c2.105 0 3.902-0.745 5.391-2.234s2.234-3.286 2.234-5.391c0-2.105-0.745-3.902-2.234-5.391s-3.287-2.234-5.391-2.234-3.902 0.744-5.391 2.234c-1.489 1.49-2.234 3.287-2.234 5.391s0.745 3.902 2.234 5.391c1.49 1.489 3.286 2.234 5.391 2.234z"></path>
    <path d="M29.91 24.052c-0.047-0.668-0.139-1.39-0.278-2.165s-0.315-1.492-0.527-2.155c-0.212-0.662-0.497-1.307-0.854-1.936s-0.768-1.165-1.231-1.608c-0.464-0.444-1.029-0.797-1.698-1.062s-1.407-0.397-2.214-0.397c-0.119 0-0.397 0.142-0.834 0.427s-0.93 0.602-1.479 0.953c-0.549 0.35-1.265 0.668-2.145 0.952s-1.764 0.427-2.651 0.427c-0.887 0-1.77-0.142-2.651-0.427s-1.595-0.602-2.145-0.952c-0.549-0.351-1.042-0.669-1.479-0.953s-0.715-0.427-0.834-0.427c-0.807 0-1.546 0.133-2.214 0.397s-1.234 0.619-1.698 1.062c-0.463 0.444-0.874 0.98-1.231 1.608s-0.642 1.275-0.854 1.936c-0.212 0.662-0.387 1.38-0.526 2.155s-0.232 1.496-0.278 2.165c-0.046 0.669-0.069 1.354-0.069 2.056 0 1.588 0.483 2.843 1.45 3.763s2.251 1.38 3.852 1.38h17.355c1.602 0 2.886-0.46 3.852-1.38s1.45-2.174 1.45-3.763c-0-0.702-0.023-1.387-0.070-2.056z"></path>
  </symbol>
  <symbol id="icon-reload" viewBox="0 0 32 32">
    <path d="M16.027 1c4.008 0.007 7.647 1.587 10.334 4.154l2.16-2.16c0.915-0.914 2.478-0.267 2.478 1.026v8.108c0 0.802-0.65 1.452-1.452 1.452h-8.108c-1.293 0-1.941-1.564-1.026-2.478l2.525-2.525c-1.867-1.748-4.282-2.716-6.849-2.738-5.589-0.048-10.299 4.474-10.251 10.248 0.046 5.477 4.487 10.074 10.161 10.074 2.488 0 4.838-0.888 6.691-2.513 0.287-0.252 0.72-0.236 0.99 0.033l2.399 2.399c0.295 0.295 0.28 0.775-0.029 1.054-2.66 2.402-6.185 3.865-10.051 3.865-8.284 0-15-6.716-15-15-0-8.275 6.753-15.015 15.027-15z"></path>
  </symbol>
  <symbol id="icon-lock" viewBox="0 0 32 32">
    <path d="M27.481 15.246c-0.391-0.391-0.866-0.587-1.425-0.587h-0.67v-4.023c0-2.57-0.922-4.777-2.765-6.62s-4.050-2.766-6.621-2.766c-2.57 0-4.777 0.922-6.621 2.766s-2.765 4.050-2.765 6.621v4.023h-0.67c-0.559 0-1.033 0.195-1.425 0.587s-0.587 0.866-0.587 1.425v12.068c0 0.558 0.196 1.034 0.587 1.425s0.866 0.586 1.425 0.586h20.113c0.559 0 1.034-0.195 1.425-0.586s0.587-0.866 0.587-1.425v-12.068c0-0.559-0.196-1.033-0.587-1.425zM21.363 14.659h-10.727v-4.023c0-1.48 0.524-2.745 1.572-3.792s2.312-1.571 3.792-1.571c1.481 0 2.744 0.524 3.792 1.571s1.571 2.312 1.571 3.792v4.023z"></path>
  </symbol>
  <symbol id="icon-back" viewBox="0 0 1024 1024">
    <path class="path1" d="M362.918 140.351l-356.761 356.771c-8.221 8.221-8.221 21.536 0 29.767l356.761 356.782c8.221 8.21 21.546 8.21 29.767 0l95.058-95.027c3.947-3.947 6.168-9.315 6.168-14.883 0-5.589-2.221-10.936-6.168-14.883l-152.95-153.003h668.155c11.62 0 21.052-9.431 21.052-21.052v-145.624c0-11.62-9.431-21.052-21.052-21.052h-668.155l152.961-152.971c7.894-7.894 7.894-21.873 0-29.767l-95.058-95.058c-3.947-3.947-9.305-6.168-14.883-6.168s-10.947 2.221-14.894 6.168z"></path>
  </symbol>
  <symbol id="icon-profile" viewBox="0 0 934 1024">
    <path class="path1" d="M908.465 544.527c0-94.041-28.621-175.816-77.689-249.416-77.689-114.486-212.616-192.172-363.904-192.172-241.237 0-437.498 196.261-437.498 437.498 0 130.841 57.241 245.326 147.196 327.105 0 0 4.090 4.090 4.090 4.090-12.269-32.71-4.090-77.689 8.179-114.486 28.621-89.952 102.22-151.285 179.906-179.906-36.8-28.621-61.331-73.599-61.331-126.751 0-81.775 65.42-151.285 147.196-159.461h36.8c81.775 8.179 147.196 77.689 147.196 159.461 0 53.152-24.531 98.131-61.331 126.751 20.442 8.179 171.73 73.599 192.172 253.505 0 8.179 0 16.355 0 24.531 85.865-69.51 139.020-183.995 139.020-310.747z"></path>
  </symbol>
  <symbol id="icon-swap" viewBox="0 0 32 32">
    <path d="M0.537 6.765c-0.002-0.595 0.465-0.586 0.465-0.586 1.975 0 17.144 0 19.791 0.002 0.862-0.002 1.42 0 1.42 0s0-2.059 0-3.354c0-1.297 0.973-0.316 0.973-0.316s7.279 5.618 8.047 6.383c0.548 0.555-0.065 1.082-0.065 1.082l-7.798 6.584c0 0-0.929 0.977-0.927-0.081 0.002-1.067 0-3.635 0-3.635s-0.623 0-1.582-0.004c-2.741 0.004-17.742 0-19.774 0 0 0-0.551 0.145-0.551-0.689 0-0.84 0-4.788 0-5.386z"></path>
    <path d="M31.461 19.638c0.002-0.599-0.465-0.586-0.465-0.586-1.971 0-17.144 0-19.793 0.002-0.86-0.002-1.42 0-1.42 0s0-2.061 0-3.356c0-1.293-0.971-0.318-0.971-0.318s-7.277 5.618-8.047 6.381c-0.551 0.557 0.065 1.091 0.065 1.091l7.795 6.584c0 0 0.926 0.975 0.926-0.088-0.004-1.067 0-3.633 0-3.633s0.623 0 1.584-0.006c2.741 0.006 17.744 0 19.772 0 0 0 0.555 0.147 0.557-0.691-0.003-0.837-0.003-4.781-0.003-5.38z"></path>
  </symbol>
  <symbol id="icon-down-up-arrow" viewBox="0 0 11 32">
    <path d="M11.43 5.713c-0.001-0.315-0.13-0.599-0.339-0.804l-4.572-4.571c-0.205-0.207-0.489-0.336-0.804-0.336s-0.599 0.129-0.804 0.336l-4.57 4.57c-0.209 0.205-0.338 0.489-0.339 0.804v0c0.004 0.629 0.513 1.138 1.142 1.143h2.286v18.285h-2.295c-0.629 0.004-1.138 0.513-1.143 1.142v0c0.001 0.315 0.13 0.599 0.339 0.804l4.572 4.572c0.205 0.207 0.489 0.336 0.804 0.336s0.599-0.128 0.804-0.336l4.572-4.572c0.209-0.204 0.338-0.489 0.339-0.804v-0c-0.004-0.629-0.513-1.138-1.142-1.143h-2.28v-18.285h2.287c0.629-0.004 1.138-0.513 1.143-1.142v-0z"></path>
  </symbol>
  <symbol id="icon-replace" viewBox="0 0 1024 1024">
    <path class="path1" d="M890.744 500.179c0 105.895-46.487 205.809-127.521 274.136l-70.39-83.52c56.355-47.513 88.679-116.996 88.679-190.619 0-132.428-103.899-240.72-234.433-248.417h-53.43l44.996 113.915c1.513 3.811 0.28 8.165-3.002 10.633-3.271 2.477-7.795 2.467-11.056-0.043l-223.74-172.028c-2.245-1.739-3.568-4.388-3.568-7.243 0-2.838 1.323-5.518 3.568-7.238l223.762-172.019c1.629-1.264 3.583-1.881 5.549-1.881 1.943 0 3.875 0.604 5.507 1.835 3.282 2.462 4.501 6.835 3.002 10.644l-44.996 113.896 38.695 0.113v-0.578c13.828 0 27.476 0.875 40.905 2.413 8.907 0.928 18.85 2.245 26.396 4.021 165.52 31.599 291.077 177.355 291.077 351.975zM499.395 647.744c-3.25-2.514-7.783-2.526-11.056-0.041-3.271 2.473-4.495 6.824-2.996 10.644l44.996 113.909h-53.428c-130.506-7.71-234.421-116.016-234.421-248.427 0-68.911 27.502-133.026 77.439-180.539l-75.308-79.136c-71.817 68.344-111.367 160.551-111.367 259.674 0 174.605 125.54 320.369 291.096 351.969 7.561 1.771 17.5 3.086 26.402 4.016 13.429 1.543 27.064 2.419 40.905 2.419v-0.583l38.693 0.117-44.996 113.896c-1.511 3.833-0.275 8.193 2.996 10.644 1.637 1.23 3.564 1.835 5.507 1.835 1.971 0 3.914-0.615 5.56-1.879l223.728-172.033c2.245-1.717 3.572-4.394 3.572-7.234 0-2.851-1.328-5.505-3.572-7.232l-223.751-172.020z"></path>
  </symbol>
  <symbol id="icon-plus" viewBox="0 0 42 32">
    <path d="M36.914 10.787h-10.685v-10.787h-10.472v10.787h-10.742v10.47h10.742v10.742h10.472v-10.742h10.685z"></path>
  </symbol>
  <symbol id="icon-marker" viewBox="0 0 1024 1024">
    <path class="path1" d="M511.999 16v0c-198.353 0-358.523 160.172-358.523 358.523 0 69.16 22.093 135.196 52.83 189.465l233.652 404.388c14.649 26.415 44.184 39.623 72.041 39.623 27.859 0 55.953-13.208 72.041-39.623l233.652-404.147c30.977-54.274 52.83-119.11 52.83-189.47 0-198.348-160.172-358.759-358.523-358.759zM511.999 480.423c-72.041 0-130.874-58.833-130.874-130.874s58.833-130.874 130.874-130.874 130.874 58.833 130.874 130.874c0 72.281-58.833 130.874-130.874 130.874z"></path>
  </symbol>
 <symbol id="icon-dropup" viewBox="0 0 32 32">
<path d="M1.874 23.708c-0.366-0.366-0.54-0.801-0.54-1.289 0-0.505 0.174-0.923 0.54-1.289l12.837-12.837c0.366-0.366 0.801-0.54 1.289-0.54 0.505 0 0.923 0.174 1.289 0.54l12.837 12.837c0.366 0.366 0.54 0.801 0.54 1.289 0 0.505-0.174 0.923-0.54 1.289s-0.801 0.54-1.289 0.54h-25.675c-0.505 0-0.923-0.174-1.289-0.54z"></path>
</symbol>
  <symbol id="icon-pencil" viewBox="0 0 32 32">
    <title>pencil</title>
    <path d="M28.992 9.882l-2.476 2.476c-0.252 0.252-0.661 0.252-0.913 0l-5.962-5.962c-0.252-0.252-0.252-0.661 0-0.913l2.476-2.476c1.005-1.005 2.637-1.005 3.647 0l3.228 3.228c1.010 1.005 1.010 2.637 0 3.647zM17.515 7.61l-14.104 14.104-1.139 6.526c-0.156 0.881 0.612 1.644 1.493 1.493l6.526-1.144 14.104-14.104c0.252-0.252 0.252-0.661 0-0.913l-5.962-5.962c-0.258-0.252-0.666-0.252-0.919 0zM8.916 20.506c-0.295-0.295-0.295-0.768 0-1.063l8.271-8.271c0.295-0.295 0.768-0.295 1.063 0s0.295 0.768 0 1.063l-8.271 8.271c-0.295 0.295-0.768 0.295-1.063 0zM6.977 25.023h2.578v1.95l-3.464 0.607-1.67-1.67 0.607-3.464h1.95v2.578z"></path>
  </symbol>
  <symbol id="icon-information" viewBox="0 0 32 32">
    <path d="M16.001 0c-8.837 0-16 7.164-16 16 0 8.834 7.163 16 16 16s15.999-7.164 15.999-16c0-8.836-7.163-16-15.999-16zM18.509 21.886c-1.208 1.812-2.436 3.212-4.503 3.212-1.41-0.23-1.989-1.241-1.684-2.27l2.66-8.807c0.064-0.216-0.044-0.446-0.242-0.515-0.196-0.069-0.58 0.187-0.913 0.549l-1.607 1.934c-0.042-0.324-0.004-0.862-0.004-1.077 1.208-1.812 3.19-3.243 4.536-3.243 1.28 0.132 1.883 1.153 1.661 2.276l-2.676 8.848c-0.036 0.2 0.070 0.405 0.251 0.467 0.199 0.070 0.611-0.185 0.944-0.549l1.607-1.932c0.041 0.324-0.030 0.892-0.030 1.109zM18.151 10.387c-1.017 0-1.842-0.74-1.842-1.831s0.825-1.831 1.842-1.831c1.016 0 1.84 0.74 1.84 1.831s-0.825 1.831-1.84 1.831z"></path>
  </symbol>
  <symbol id="icon-delete" viewBox="0 0 1024 1024">
    <path class="path1" d="M213.533 937.679c0 11.526 9.293 20.829 20.829 20.829 138.86 0 416.646 0 555.431 0 11.485 0 20.829-9.341 20.829-20.829 0-144.341 0-577.416 0-577.416h-597.070c0 0 0 433.049 0 577.416zM631.887 472.256c0-18.74 15.185-34.071 34.071-34.071h0.736c18.74 0 34.071 15.185 34.071 34.071v374.348c0 18.74-15.185 34.071-34.071 34.071h-0.736c-18.74 0-34.071-15.185-34.071-34.071v-374.348zM477.643 472.256c0-18.74 15.185-34.071 34.071-34.071h0.736c18.74 0 34.071 15.185 34.071 34.071v374.348c0 18.74-15.185 34.071-34.071 34.071h-0.736c-18.74 0-34.071-15.185-34.071-34.071v-374.348zM323.406 472.256c0-18.74 15.185-34.071 34.071-34.071h0.736c18.74 0 34.071 15.185 34.071 34.071v374.348c0 18.74-15.185 34.071-34.071 34.071h-0.736c-18.74 0-34.071-15.185-34.071-34.071v-374.348z"></path>
    <path class="path2" d="M420.506 127.956c0-11.485 9.402-20.829 20.829-20.829h141.258c11.485 0 20.829 9.341 20.829 20.829v36.439h41.733v-46.833c0-28.767-23.327-52.065-52.065-52.065h-162.183c-28.767 0-52.065 23.327-52.065 52.065v46.833h41.633v-36.439z"></path>
    <path class="path3" d="M815.72 206.027h-607.377c-11.485 0-20.829 9.293-20.829 20.829v70.988c0 11.485 9.341 20.829 20.829 20.829h607.377c11.485 0 20.829-9.341 20.829-20.829v-70.988c0-11.485-9.402-20.829-20.829-20.829z"></path>
  </symbol>
  <symbol id="icon-warning" viewBox="0 0 32 32">
    <path class="path1" d="M31.763 28.129l-13.958-26.153c-0.348-0.654-1.030-1.064-1.772-1.064h-0.002c-0.742 0-1.422 0.408-1.772 1.062l-14.020 26.153c-0.334 0.628-0.316 1.38 0.046 1.984 0.364 0.606 1.020 0.978 1.726 0.978h27.976c0.708 0 1.362-0.37 1.726-0.978 0.364-0.606 0.382-1.358 0.050-1.982zM16.031 27.065c-1.111 0-2.012-0.901-2.012-2.012s0.901-2.012 2.012-2.012c1.108 0 2.012 0.901 2.012 2.012s-0.901 2.012-2.012 2.012zM18.045 19.050c0 1.113-0.903 2.012-2.012 2.012-1.111 0-2.012-0.899-2.012-2.012v-8.047c0-1.111 0.901-2.012 2.012-2.012 1.108 0 2.012 0.901 2.012 2.012v8.047z"></path>
  </symbol>
  <symbol id="icon-settings" viewBox="0 0 32 32">
    <path d="M26.468 8.62c-1.942 0-3.516-1.575-3.516-3.517 0-0.974 0.395-1.854 1.035-2.489-1.383-0.832-2.901-1.458-4.519-1.829-0.024 1.92-1.585 3.472-3.51 3.472s-3.487-1.552-3.512-3.472c-1.63 0.374-3.159 1.007-4.55 1.846 0.628 0.636 1.018 1.509 1.018 2.473 0 1.943-1.575 3.517-3.516 3.517-1.007 0-1.909-0.429-2.549-1.108-0.996 1.537-1.731 3.256-2.139 5.103 1.926 0.019 3.48 1.584 3.48 3.512 0 1.907-1.521 3.453-3.415 3.506 0.399 1.672 1.064 3.239 1.954 4.654 0.636-0.637 1.515-1.030 2.487-1.030 1.941 0 3.516 1.575 3.516 3.517 0 0.967-0.391 1.844-1.025 2.479 1.442 0.899 3.036 1.571 4.74 1.962 0-0.016-0.005-0.032-0.005-0.048 0-1.94 1.575-3.515 3.516-3.515s3.516 1.575 3.516 3.515c0 0.016-0.005 0.032-0.005 0.048 1.707-0.391 3.304-1.066 4.748-1.967-0.598-0.631-0.97-1.477-0.97-2.413 0-1.943 1.573-3.517 3.516-3.517 0.941 0 1.79 0.374 2.421 0.977 0.891-1.417 1.558-2.982 1.957-4.657-1.922-0.020-3.475-1.583-3.475-3.512 0-1.94 1.575-3.515 3.516-3.515 0.008 0 0.017 0.001 0.024 0.001-0.41-1.859-1.152-3.59-2.16-5.135-0.641 0.698-1.554 1.141-2.578 1.141zM15.957 22.931c-3.827 0-6.931-3.103-6.931-6.931s3.104-6.931 6.931-6.931c3.829 0 6.931 3.103 6.931 6.931s-3.103 6.931-6.931 6.931z"></path>
  </symbol>
  <symbol id="icon-chevron_down" viewBox="0 0 42 32">
    <path d="M7.205 5.313l-4.048 4.036 17.298 17.35 17.35-17.298-4.035-4.048-13.304 13.261z"></path>
  </symbol>
  <symbol id="icon-sitemap" viewBox="0 0 32 32">
    <path d="M32 22.19v6.557c0 0.648-0.528 1.174-1.174 1.174h-6.557c-0.648 0-1.174-0.526-1.174-1.174v-6.557c0-0.648 0.526-1.174 1.174-1.174h1.713v-3.474h-8.807v3.474h2.104c0.648 0 1.174 0.526 1.174 1.174v6.557c0 0.648-0.526 1.174-1.174 1.174h-6.557c-0.648 0-1.174-0.526-1.174-1.174v-6.557c0-0.648 0.526-1.174 1.174-1.174h2.104v-3.474h-8.807v3.474h1.713c0.647 0 1.174 0.526 1.174 1.174v6.557c0 0.648-0.527 1.174-1.174 1.174h-6.557c-0.648 0-1.174-0.526-1.174-1.174v-6.557c0-0.648 0.526-1.174 1.174-1.174h2.496v-4.649c0-0.647 0.526-1.174 1.174-1.174h9.982v-4.208h-2.104c-0.648 0-1.174-0.526-1.174-1.174v-6.557c0-0.647 0.526-1.174 1.174-1.174h6.557c0.648 0 1.174 0.527 1.174 1.174v6.557c0 0.648-0.526 1.174-1.174 1.174h-2.104v4.208h9.982c0.647 0 1.174 0.528 1.174 1.174v4.649h2.496c0.647 0 1.174 0.526 1.174 1.174z"></path>
  </symbol>
  <symbol id="icon-graduate-cap" viewBox="0 0 32 32">
    <path d="M32 12.552v-0.705l-16.007-7.711-15.993 7.704v0.718l15.993 7.704z"></path>
    <path d="M5.541 16.633v4.608l9.642 4.645h1.62l9.615-4.632c0.009-0.020 0.018-0.041 0.027-0.061v-4.56l-10.452 5.035-10.452-5.035z"></path>
    <path d="M30.314 23.682v-8.965l-1.266 0.638v8.326l-0.825 2.513 1.247 1.669h0.422l1.247-1.669z"></path>
  </symbol>
  <symbol id="icon-star" viewBox="0 0 34 32">
    <path d="M16.754 25.634l10.387 6.199-2.681-11.728 9.215-7.874-12.063-1.005-4.859-11.225-4.691 11.058-12.063 1.173 9.215 7.874-2.681 11.895 10.22-6.367z"></path>
  </symbol>
  <symbol id="icon-basket" viewBox="0 0 32 32">
    <path d="M30.88 14.4v0.8c0 0.64-0.48 1.28-1.28 1.28h-0.48l-1.28 9.44c-0.16 1.28-1.28 2.080-2.4 2.080h-18.88c-1.28 0-2.24-0.96-2.4-2.080l-1.28-9.44h-0.48c-0.64 0-1.28-0.48-1.28-1.28v-0.8c0-0.64 0.48-1.28 1.28-1.28h3.52l5.44-7.52c0.48-0.8 1.6-0.96 2.24-0.32 0.8 0.48 0.96 1.6 0.32 2.24l-4 5.6h12.16l-4.16-5.6c-0.48-0.8-0.32-1.76 0.32-2.24 0.8-0.48 1.76-0.32 2.24 0.32l5.44 7.52h3.52c0.8 0 1.44 0.64 1.44 1.28zM17.28 23.36v-5.76c0-0.64-0.48-1.28-1.28-1.28s-1.28 0.64-1.28 1.28v5.76c0 0.64 0.48 1.28 1.28 1.28s1.28-0.48 1.28-1.28zM23.040 23.36v-5.76c0-0.64-0.48-1.28-1.28-1.28-0.64 0-1.28 0.48-1.28 1.28v5.76c0 0.64 0.48 1.28 1.28 1.28 0.64 0 1.28-0.48 1.28-1.28zM11.52 23.36v-5.76c0-0.64-0.48-1.28-1.28-1.28-0.64 0-1.28 0.48-1.28 1.28v5.76c0 0.64 0.48 1.28 1.28 1.28 0.64 0 1.28-0.48 1.28-1.28z"></path>
  </symbol>
  <symbol id="icon-club" viewBox="0 0 32 32">
    <path d="M27.259 3.826c-0.357 0.001-0.695 0.080-0.999 0.222l0.015-0.006c-1.595 0.828-3.471 1.345-5.461 1.42l-0.024 0.001c-3.051 0-4.824-1.622-8.339-1.622-2.547 0.094-4.933 0.685-7.097 1.678l0.116-0.048v-0.426c-0.003-0.674-0.55-1.22-1.224-1.221h-0c-0.674 0-1.221 0.547-1.221 1.221v0 23.608c0 0 0 0.001 0 0.002 0 0.673 0.546 1.219 1.219 1.219 0.001 0 0.001 0 0.002 0h-0c0.674 0 1.221-0.547 1.221-1.221v0-5.293c1.974-0.973 4.29-1.564 6.739-1.616l0.018-0c3.746 0 6.355 1.616 10.104 1.616 2.046-0.026 3.985-0.455 5.751-1.212l-0.098 0.037c0.629-0.206 1.078-0.78 1.094-1.462l0-0.002v-15.333c-0.037-0.876-0.756-1.573-1.639-1.573-0.063 0-0.124 0.003-0.185 0.010l0.007-0.001z"></path>
  </symbol>
  <symbol id="icon-home" viewBox="0 0 1314 1024">
    <path class="path1" d="M1163.305 490.108c18.971-20.554 16.997-52.173-3.952-70.753l-463.249-405.145c-20.949-18.579-54.547-18.183-75.497 0.791l-464.436 426.094c-20.554 18.971-21.741 50.595-2.369 70.357l11.462 12.253c19.367 20.158 50.595 22.532 69.961 5.535l34.785-31.223v455.343c0 28.063 22.532 50.595 50.595 50.595h181.030c28.063 0 50.595-22.532 50.595-50.595v-318.582h230.833v318.582c-0.396 28.063 19.762 50.595 47.434 50.595h192.1c28.063 0 50.595-22.532 50.595-50.595v-449.022c0 0 9.487 8.3 21.345 18.971 11.858 10.279 36.759 1.979 55.339-18.579l13.44-14.623z"></path>
  </symbol>
  <symbol id="icon-tournament" viewBox="0 0 23 32">
    <path d="M13.806 6.87l3.663-6.87h-12.465l3.649 6.87h5.152z"></path>
    <path d="M19.737 0.886c-0.268-0.523-0.725-0.523-0.993 0l-5.997 11.391c2.147 0.309 4.092 1.261 5.622 2.657l3.891-7.366c0.268-0.523 0.268-1.369 0-1.892l-2.522-4.79z"></path>
    <path d="M9.714 12.277l-5.984-11.391c-0.268-0.523-0.725-0.523-0.993 0l-2.536 4.79c-0.268 0.523-0.268 1.369 0 1.892l3.878 7.353c1.543-1.395 3.488-2.348 5.635-2.643v0z"></path>
    <path d="M11.217 13.766c-5.005 0-9.070 4.065-9.070 9.070s4.065 9.070 9.070 9.070c5.005 0 9.070-4.065 9.070-9.070s-4.052-9.070-9.070-9.070v0zM11.217 29.317c-3.569 0-6.481-2.898-6.481-6.48 0-3.569 2.898-6.48 6.481-6.48 3.569 0 6.48 2.898 6.48 6.48 0 3.569-2.912 6.48-6.48 6.48v0z"></path>
    <path d="M11.217 17.966c-2.683 0-4.87 2.187-4.87 4.87s2.187 4.87 4.87 4.87c2.683 0 4.87-2.187 4.87-4.87s-2.187-4.87-4.87-4.87v0z"></path>
  </symbol>
  <symbol id="icon-league" viewBox="0 0 41 32">
    <path d="M30.89 0.572c-1.94 0-3.594 1.033-4.476 2.586h-11.722c-0.882-1.554-2.527-2.586-4.476-2.586-2.897 0-5.164 2.267-5.164 5.164 0 4.181 2.922 6.675 5.752 9.094 1.234 1.058 2.426 2.074 3.35 3.208 1.025 2.637 2.292 4.761 3.728 5.97 4.022 4.341-5.206 3.72-5.206 7.574h15.626c0-3.787-8.867-3.258-5.425-7.331 1.57-1.151 2.972-3.367 4.081-6.214 0.924-1.125 2.108-2.141 3.342-3.208 2.83-2.418 5.752-4.904 5.752-9.094 0-2.897-2.267-5.164-5.164-5.164v0zM12.484 12.865c-2.603-2.217-4.845-4.14-4.845-7.129 0-1.469 1.108-2.578 2.578-2.578 0.487 0 0.924 0.126 1.302 0.336 0.033 3.183 0.428 6.474 1.116 9.497-0.050-0.042-0.101-0.084-0.151-0.126v0zM28.623 12.865c-0.050 0.042-0.101 0.093-0.151 0.126 0.697-3.023 1.091-6.314 1.116-9.497 0.378-0.21 0.814-0.336 1.302-0.336 1.478 0 2.586 1.108 2.586 2.578 0 2.989-2.242 4.904-4.853 7.129v0z"></path>
  </symbol>
  <symbol id="icon-players" viewBox="0 0 32 32">
    <title>Players</title>
    <path d="M3.359 7.762c0 2.437 1.891 4.439 4.283 4.619-0.76-1.37-1.194-2.945-1.194-4.619s0.434-3.25 1.194-4.619c-2.392 0.18-4.283 2.182-4.283 4.619z"></path>
    <path d="M0 23.479c0 0.853 0.692 1.545 1.545 1.545h0.106c1.195-4.143 4.139-7.551 7.977-9.369-0.532-0.111-1.079-0.169-1.634-0.169-4.408 0-7.993 3.586-7.993 7.993z"></path>
    <path d="M28.641 7.762c0-2.437-1.891-4.439-4.283-4.619 0.76 1.37 1.194 2.945 1.194 4.619s-0.434 3.25-1.194 4.619c2.392-0.18 4.283-2.182 4.283-4.619z"></path>
    <path d="M30.455 25.023c0.853 0 1.545-0.692 1.545-1.545 0-4.408-3.586-7.993-7.993-7.993-0.555 0-1.102 0.058-1.634 0.169 3.838 1.819 6.782 5.227 7.977 9.369h0.106z"></path>
    <path d="M16 14.224c2.172 0 4.096-1.079 5.268-2.727 0.751-1.056 1.194-2.344 1.194-3.735s-0.443-2.68-1.194-3.735c-1.172-1.648-3.096-2.727-5.268-2.727-3.563 0-6.462 2.899-6.462 6.462s2.899 6.462 6.462 6.462z"></path>
    <path d="M27.842 29.155c0-1.453-0.264-2.845-0.744-4.132-1.386-3.71-4.581-6.544-8.507-7.424-0.834-0.187-1.701-0.286-2.591-0.286-6.53 0-11.842 5.313-11.842 11.842 0 0.853 0.692 1.545 1.545 1.545h20.596c0.853 0 1.545-0.692 1.545-1.545z"></path>
  </symbol>
  <symbol id="icon-ladder" viewBox="0 0 20 32">
    <path d="M18.243 32c-1.004 0-1.818-0.608-1.818-1.357v-29.286c0-0.749 0.814-1.357 1.818-1.357s1.818 0.608 1.818 1.357v29.286c-0.002 0.749-0.816 1.357-1.818 1.357z"></path>
    <path d="M16.743 11.32h-13.466c-0.749 0-1.357-0.729-1.357-1.628s0.608-1.628 1.357-1.628h13.466c0.749 0 1.357 0.729 1.357 1.628s-0.608 1.628-1.357 1.628z"></path>
    <path d="M16.879 17.795h-13.466c-0.749 0-1.357-0.729-1.357-1.628s0.608-1.628 1.357-1.628h13.466c0.749 0 1.357 0.729 1.357 1.628s-0.608 1.628-1.357 1.628z"></path>
    <path d="M16.732 24.268h-13.466c-0.749 0-1.357-0.729-1.357-1.628s0.608-1.628 1.357-1.628h13.466c0.749 0 1.357 0.729 1.357 1.628s-0.608 1.628-1.357 1.628z"></path>
    <path d="M1.818 32c-1.004 0-1.818-0.608-1.818-1.357v-29.286c0-0.749 0.814-1.357 1.818-1.357s1.818 0.608 1.818 1.357v29.286c-0.003 0.749-0.816 1.357-1.818 1.357z"></path>
  </symbol>
  <symbol id="icon-statistics" viewBox="0 0 1314 1024">
    <path class="path1" d="M67.101 55.528c-13.983 8.901-25.419 21.611-25.419 40.040v748.034c0 0-3.181 154.437 144.902 154.437h943.139c29.873 0 73.722-8.263 89.613-27.33 9.536-10.802 16.529-24.784 16.529-40.675 0-16.529-7.628-31.774-17.156-44.487-16.529-20.972-59.739-33.047-89.613-33.047l-835.731-2.546c-29.873 0-74.995 3.81-92.152-10.167-8.263-6.99-14.617-17.791-14.617-36.228v-121.39c0-29.873 22.884-61.651 51.477-70.541l188.758-59.105c28.6-8.901 70.541-1.273 94.060 17.156l215.45 169.055c23.511 18.43 60.378 16.529 81.989-3.81l369.253-347.642c21.611-20.337 40.040-61.651 40.040-91.517l1.908-118.209c0.635-29.873-16.529-37.494-38.13-16.529l-368.614 353.362c-21.611 20.337-58.47 22.884-82.623 5.082l-212.269-158.25c-24.15-17.791-66.094-24.15-94.698-14.617l-195.112 68.64c-27.965 10.167-51.477-6.355-51.477-36.228l0.635-235.153c0-29.873-10.167-73.722-30.505-89.613-20.972-16.529-66.733-13.983-89.613 1.273v0z"></path>
  </symbol>
</svg>
