
<svg xmlns="http://www.w3.org/2000/svg">
  <symbol id="icon-sign-in" viewBox="0 0 32 32">
    <path d="M24.48 25.76h-4.48c-0.32 0-0.64-0.32-0.64-0.64v-2.080c0-0.32 0.32-0.64 0.64-0.64h4.48c0.96 0 1.76-0.8 1.76-1.76v-10.4c0-0.96-0.8-1.76-1.76-1.76h-4.48c-0.32 0-0.64-0.32-0.64-0.64v-2.080c0-0.32 0.32-0.64 0.64-0.64h4.48c2.88 0 5.12 2.24 5.12 5.12v10.24c0.16 3.040-2.24 5.28-5.12 5.28zM21.92 15.040l-8.96-9.12c-0.8-0.8-2.24-0.16-2.24 0.96v5.12h-7.2c-0.64 0-1.28 0.64-1.28 1.28v5.12c0 0.64 0.64 1.28 1.28 1.28h7.36v5.12c0 1.12 1.44 1.76 2.24 0.96l8.96-8.96c0.48-0.48 0.48-1.28-0.16-1.76z" />
  </symbol>
  <symbol id="icon-officiating" viewBox="0 0 32 32">
    <title>Officiating</title>
    <path d="M30.995 13.879l-4.389-11.411c-0.439-0.878-1.317-1.463-2.194-1.463h-4.096c-0.293 0-0.439 0.146-0.439 0.439 0 1.317-1.756 2.487-3.804 2.487s-3.95-1.17-3.95-2.487c0-0.293-0.146-0.439-0.439-0.439h-4.096c-1.024 0-1.902 0.585-2.194 1.463l-4.389 11.411c0 0.293 0 0.585 0.293 0.585l4.974 1.317v14.629c0 0.293 0.146 0.439 0.439 0.439h18.433c0.293 0 0.439-0.146 0.439-0.439v-14.629l4.974-1.317c0.293 0 0.439-0.293 0.439-0.585zM29.093 11.684l-1.024 0.293v-2.926l1.024 2.633zM2.907 11.684l1.024-2.633v3.072l-1.024-0.439zM7.003 15.049l-4.828-1.317 0.293-1.024 4.096 1.317c0.293 0.146 0.585 0 0.732-0.293s0-0.585-0.293-0.585l-1.609-0.732v-5.705l0.878-3.804c0.293-0.585 0.732-0.878 1.317-0.878h0.585v28.088h-0.878v-14.629c0-0.146-0.146-0.439-0.293-0.439zM10.66 29.971v-27.942h0.585c0.732 1.756 2.341 2.926 4.242 2.926l-1.463-0.585v25.748h-3.365zM16.512 4.809c1.902 0 3.657-1.024 4.242-2.926h-0.585v7.754h-1.756c-0.293 0-0.439 0.146-0.439 0.439v4.828c0 0.146 0.146 0.293 0.293 0.439l0.293 0.293c0.878 0.439 0.585 0.732 1.463 0.585v13.752h-3.657l0.146-25.163zM19.145 14.903l-0.146-0.146v-4.096h3.804v4.096l-0.146 0.146c-1.17 0.585-2.487 0.585-3.511 0zM24.997 15.049c-0.146 0-0.293 0.293-0.293 0.439v14.483h-2.487v-13.898c0.293-0.146 0.585-0.146 0.732-0.293l0.439-0.293c0.146-0.146 0.293-0.293 0.293-0.439v-4.828c0-0.293-0.146-0.439-0.439-0.439h-1.024v-7.754h2.194c0.585 0 1.17 0.293 1.317 0.878l0.878 2.194v7.461l-1.463 0.732c-0.293 0.146-0.439 0.293-0.293 0.585s0.293 0.439 0.585 0.293l3.95-1.463 0.439 1.024-4.828 1.317z" />
  </symbol>
  <symbol id="icon-membership" viewBox="0 0 36 32">
    <title>membership</title>
    <path d="M32.464 2.5h-28.929c-1.597 0-2.893 1.296-2.893 2.893v21.214c0 1.597 1.296 2.893 2.893 2.893h28.929c1.597 0 2.893-1.296 2.893-2.893v-21.214c0-1.597-1.296-2.893-2.893-2.893zM11.25 8.286c2.127 0 3.857 1.73 3.857 3.857s-1.73 3.857-3.857 3.857-3.857-1.73-3.857-3.857 1.73-3.857 3.857-3.857zM18 22.557c0 0.639-0.603 1.157-1.35 1.157h-10.8c-0.747 0-1.35-0.518-1.35-1.157v-1.157c0-1.916 1.814-3.471 4.050-3.471h0.301c0.741 0.307 1.549 0.482 2.399 0.482s1.663-0.175 2.399-0.482h0.301c2.236 0 4.050 1.555 4.050 3.471v1.157zM31.5 19.375c0 0.265-0.217 0.482-0.482 0.482h-8.679c-0.265 0-0.482-0.217-0.482-0.482v-0.964c0-0.265 0.217-0.482 0.482-0.482h8.679c0.265 0 0.482 0.217 0.482 0.482v0.964zM31.5 15.518c0 0.265-0.217 0.482-0.482 0.482h-8.679c-0.265 0-0.482-0.217-0.482-0.482v-0.964c0-0.265 0.217-0.482 0.482-0.482h8.679c0.265 0 0.482 0.217 0.482 0.482v0.964zM31.5 11.661c0 0.265-0.217 0.482-0.482 0.482h-8.679c-0.265 0-0.482-0.217-0.482-0.482v-0.964c0-0.265 0.217-0.482 0.482-0.482h8.679c0.265 0 0.482 0.217 0.482 0.482v0.964z" />
  </symbol>
  <symbol id="icon-team" viewBox="0 0 32 32">
    <path d="M23.059 3.727l-0.386 0.387v-0.387h-1.902c-0.858 1.326-2.669 2.242-4.771 2.242s-3.913-0.916-4.77-2.242h-1.902v0.387l-0.387-0.387-6.842 6.846 3.743 3.746 3.486-3.488v17.442h13.345v-17.441l3.487 3.488 3.742-3.746-6.841-6.846z" />
    <path d="M22.672 29.811h-13.345c-0.849 0-1.539-0.689-1.539-1.539v-13.726l-0.86 0.86c-0.288 0.289-0.68 0.451-1.089 0.451 0 0 0 0 0 0-0.408 0-0.8-0.162-1.089-0.451l-3.743-3.746c-0.6-0.601-0.6-1.574 0-2.176l6.844-6.846c0.334-0.335 0.816-0.497 1.281-0.438 0.064-0.008 0.129-0.012 0.194-0.012h1.902c0.522 0 1.009 0.265 1.292 0.702 0.605 0.935 1.971 1.539 3.479 1.539s2.874-0.604 3.48-1.539c0.283-0.438 0.769-0.702 1.292-0.702h1.902c0.065 0 0.13 0.004 0.194 0.012 0.063-0.008 0.127-0.012 0.192-0.012 0.001 0 0.001 0 0.001 0 0.408 0 0.799 0.162 1.089 0.451l6.842 6.845c0.6 0.601 0.6 1.574 0 2.176l-3.742 3.747c-0.288 0.288-0.68 0.451-1.088 0.451-0.001 0-0.001 0-0.001 0-0.408 0.001-0.799-0.162-1.088-0.45l-0.861-0.862v13.727c-0.001 0.85-0.689 1.539-1.539 1.539zM10.865 26.734h10.268v-15.902c0-0.622 0.375-1.183 0.949-1.422s1.236-0.107 1.677 0.334l2.399 2.399 1.568-1.569-4.923-4.926c-0.245 0.022-0.487-0.016-0.719-0.112-0.161-0.066-0.306-0.158-0.432-0.27h-0.132c-1.27 1.4-3.306 2.242-5.52 2.242s-4.25-0.842-5.52-2.242h-0.132c-0.125 0.112-0.271 0.203-0.432 0.27-0.233 0.096-0.481 0.13-0.72 0.112l-4.923 4.927 1.568 1.569 2.398-2.399c0.44-0.441 1.102-0.572 1.677-0.334s0.95 0.799 0.95 1.422v15.902z" />
  </symbol>
  <symbol id="icon-club" viewBox="0 0 32 32">
    <path d="M27.259 3.826c-0.357 0.001-0.695 0.080-0.999 0.222l0.015-0.006c-1.595 0.828-3.471 1.345-5.461 1.42l-0.024 0.001c-3.051 0-4.824-1.622-8.339-1.622-2.547 0.094-4.933 0.685-7.097 1.678l0.116-0.048v-0.426c-0.003-0.674-0.55-1.22-1.224-1.221h-0c-0.674 0-1.221 0.547-1.221 1.221v0 23.608c0 0 0 0.001 0 0.002 0 0.673 0.546 1.219 1.219 1.219 0.001 0 0.001 0 0.002 0h-0c0.674 0 1.221-0.547 1.221-1.221v0-5.293c1.974-0.973 4.29-1.564 6.739-1.616l0.018-0c3.746 0 6.355 1.616 10.104 1.616 2.046-0.026 3.985-0.455 5.751-1.212l-0.098 0.037c0.629-0.206 1.078-0.78 1.094-1.462l0-0.002v-15.333c-0.037-0.876-0.756-1.573-1.639-1.573-0.063 0-0.124 0.003-0.185 0.010l0.007-0.001z" />
  </symbol>
  <symbol id="icon-home" viewBox="0 0 1314 1024">
    <path class="path1" d="M1163.305 490.108c18.971-20.554 16.997-52.173-3.952-70.753l-463.249-405.145c-20.949-18.579-54.547-18.183-75.497 0.791l-464.436 426.094c-20.554 18.971-21.741 50.595-2.369 70.357l11.462 12.253c19.367 20.158 50.595 22.532 69.961 5.535l34.785-31.223v455.343c0 28.063 22.532 50.595 50.595 50.595h181.030c28.063 0 50.595-22.532 50.595-50.595v-318.582h230.833v318.582c-0.396 28.063 19.762 50.595 47.434 50.595h192.1c28.063 0 50.595-22.532 50.595-50.595v-449.022c0 0 9.487 8.3 21.345 18.971 11.858 10.279 36.759 1.979 55.339-18.579l13.44-14.623z" />
  </symbol>
  <symbol id="icon-tournament" viewBox="0 0 23 32">
    <path d="M13.806 6.87l3.663-6.87h-12.465l3.649 6.87h5.152z" />
    <path d="M19.737 0.886c-0.268-0.523-0.725-0.523-0.993 0l-5.997 11.391c2.147 0.309 4.092 1.261 5.622 2.657l3.891-7.366c0.268-0.523 0.268-1.369 0-1.892l-2.522-4.79z" />
    <path d="M9.714 12.277l-5.984-11.391c-0.268-0.523-0.725-0.523-0.993 0l-2.536 4.79c-0.268 0.523-0.268 1.369 0 1.892l3.878 7.353c1.543-1.395 3.488-2.348 5.635-2.643v0z" />
    <path d="M11.217 13.766c-5.005 0-9.070 4.065-9.070 9.070s4.065 9.070 9.070 9.070c5.005 0 9.070-4.065 9.070-9.070s-4.052-9.070-9.070-9.070v0zM11.217 29.317c-3.569 0-6.481-2.898-6.481-6.48 0-3.569 2.898-6.48 6.481-6.48 3.569 0 6.48 2.898 6.48 6.48 0 3.569-2.912 6.48-6.48 6.48v0z" />
    <path d="M11.217 17.966c-2.683 0-4.87 2.187-4.87 4.87s2.187 4.87 4.87 4.87c2.683 0 4.87-2.187 4.87-4.87s-2.187-4.87-4.87-4.87v0z" />
  </symbol>
  <symbol id="icon-league" viewBox="0 0 41 32">
    <path d="M30.89 0.572c-1.94 0-3.594 1.033-4.476 2.586h-11.722c-0.882-1.554-2.527-2.586-4.476-2.586-2.897 0-5.164 2.267-5.164 5.164 0 4.181 2.922 6.675 5.752 9.094 1.234 1.058 2.426 2.074 3.35 3.208 1.025 2.637 2.292 4.761 3.728 5.97 4.022 4.341-5.206 3.72-5.206 7.574h15.626c0-3.787-8.867-3.258-5.425-7.331 1.57-1.151 2.972-3.367 4.081-6.214 0.924-1.125 2.108-2.141 3.342-3.208 2.83-2.418 5.752-4.904 5.752-9.094 0-2.897-2.267-5.164-5.164-5.164v0zM12.484 12.865c-2.603-2.217-4.845-4.14-4.845-7.129 0-1.469 1.108-2.578 2.578-2.578 0.487 0 0.924 0.126 1.302 0.336 0.033 3.183 0.428 6.474 1.116 9.497-0.050-0.042-0.101-0.084-0.151-0.126v0zM28.623 12.865c-0.050 0.042-0.101 0.093-0.151 0.126 0.697-3.023 1.091-6.314 1.116-9.497 0.378-0.21 0.814-0.336 1.302-0.336 1.478 0 2.586 1.108 2.586 2.578 0 2.989-2.242 4.904-4.853 7.129v0z" />
  </symbol>
  <symbol id="icon-players" viewBox="0 0 32 32">
    <title>Players</title>
    <path d="M3.359 7.762c0 2.437 1.891 4.439 4.283 4.619-0.76-1.37-1.194-2.945-1.194-4.619s0.434-3.25 1.194-4.619c-2.392 0.18-4.283 2.182-4.283 4.619z" />
    <path d="M0 23.479c0 0.853 0.692 1.545 1.545 1.545h0.106c1.195-4.143 4.139-7.551 7.977-9.369-0.532-0.111-1.079-0.169-1.634-0.169-4.408 0-7.993 3.586-7.993 7.993z" />
    <path d="M28.641 7.762c0-2.437-1.891-4.439-4.283-4.619 0.76 1.37 1.194 2.945 1.194 4.619s-0.434 3.25-1.194 4.619c2.392-0.18 4.283-2.182 4.283-4.619z" />
    <path d="M30.455 25.023c0.853 0 1.545-0.692 1.545-1.545 0-4.408-3.586-7.993-7.993-7.993-0.555 0-1.102 0.058-1.634 0.169 3.838 1.819 6.782 5.227 7.977 9.369h0.106z" />
    <path d="M16 14.224c2.172 0 4.096-1.079 5.268-2.727 0.751-1.056 1.194-2.344 1.194-3.735s-0.443-2.68-1.194-3.735c-1.172-1.648-3.096-2.727-5.268-2.727-3.563 0-6.462 2.899-6.462 6.462s2.899 6.462 6.462 6.462z" />
    <path d="M27.842 29.155c0-1.453-0.264-2.845-0.744-4.132-1.386-3.71-4.581-6.544-8.507-7.424-0.834-0.187-1.701-0.286-2.591-0.286-6.53 0-11.842 5.313-11.842 11.842 0 0.853 0.692 1.545 1.545 1.545h20.596c0.853 0 1.545-0.692 1.545-1.545z" />
  </symbol>
  <symbol id="icon-ladder" viewBox="0 0 20 32">
    <path d="M18.243 32c-1.004 0-1.818-0.608-1.818-1.357v-29.286c0-0.749 0.814-1.357 1.818-1.357s1.818 0.608 1.818 1.357v29.286c-0.002 0.749-0.816 1.357-1.818 1.357z" />
    <path d="M16.743 11.32h-13.466c-0.749 0-1.357-0.729-1.357-1.628s0.608-1.628 1.357-1.628h13.466c0.749 0 1.357 0.729 1.357 1.628s-0.608 1.628-1.357 1.628z" />
    <path d="M16.879 17.795h-13.466c-0.749 0-1.357-0.729-1.357-1.628s0.608-1.628 1.357-1.628h13.466c0.749 0 1.357 0.729 1.357 1.628s-0.608 1.628-1.357 1.628z" />
    <path d="M16.732 24.268h-13.466c-0.749 0-1.357-0.729-1.357-1.628s0.608-1.628 1.357-1.628h13.466c0.749 0 1.357 0.729 1.357 1.628s-0.608 1.628-1.357 1.628z" />
    <path d="M1.818 32c-1.004 0-1.818-0.608-1.818-1.357v-29.286c0-0.749 0.814-1.357 1.818-1.357s1.818 0.608 1.818 1.357v29.286c-0.003 0.749-0.816 1.357-1.818 1.357z" />
  </symbol>
  <symbol id="icon-statistics" viewBox="0 0 1314 1024">
    <path class="path1" d="M67.101 55.528c-13.983 8.901-25.419 21.611-25.419 40.040v748.034c0 0-3.181 154.437 144.902 154.437h943.139c29.873 0 73.722-8.263 89.613-27.33 9.536-10.802 16.529-24.784 16.529-40.675 0-16.529-7.628-31.774-17.156-44.487-16.529-20.972-59.739-33.047-89.613-33.047l-835.731-2.546c-29.873 0-74.995 3.81-92.152-10.167-8.263-6.99-14.617-17.791-14.617-36.228v-121.39c0-29.873 22.884-61.651 51.477-70.541l188.758-59.105c28.6-8.901 70.541-1.273 94.060 17.156l215.45 169.055c23.511 18.43 60.378 16.529 81.989-3.81l369.253-347.642c21.611-20.337 40.040-61.651 40.040-91.517l1.908-118.209c0.635-29.873-16.529-37.494-38.13-16.529l-368.614 353.362c-21.611 20.337-58.47 22.884-82.623 5.082l-212.269-158.25c-24.15-17.791-66.094-24.15-94.698-14.617l-195.112 68.64c-27.965 10.167-51.477-6.355-51.477-36.228l0.635-235.153c0-29.873-10.167-73.722-30.505-89.613-20.972-16.529-66.733-13.983-89.613 1.273v0z" />
  </symbol>
  <symbol id="icon-livescore" viewBox="0 0 1365 1024">
    <path class="path1" d="M153.291 496.705h101.743v432.41h127.181v82.665h-228.924v-515.073z" />
    <path class="path2" d="M541.187 496.705v515.073h-101.743v-515.073h101.743z" />
    <path class="path3" d="M700.161 1011.782l-114.462-515.073h114.462l38.153 222.564c6.359 57.231 19.078 120.821 25.438 178.052v0c6.359-63.59 12.719-120.821 25.438-178.052l38.153-222.564h108.102l-120.821 515.073h-114.462z" />
    <path class="path4" d="M1189.802 789.219h-114.462v139.896h133.54v82.665h-228.924v-515.073h222.564v89.024h-120.821v120.821h114.462v82.665z" />
    <path class="path5" d="M445.805 19.783v82.665c184.412 0 337.026 152.613 337.026 343.386h82.665c0-241.643-190.767-426.050-419.691-426.050v0z" />
    <path class="path6" d="M445.805 159.679v82.665c50.871 0 101.743 19.078 139.896 57.231s57.231 89.024 57.231 139.896h82.665c-6.359-152.613-127.181-279.795-279.795-279.795v0z" />
    <path class="path7" d="M503.036 325.011c-31.793 0-57.231 25.438-57.231 57.231s25.438 57.231 57.231 57.231c31.793 0 57.231-25.438 57.231-57.231-6.359-31.793-31.793-57.231-57.231-57.231v0z" />
  </symbol>
  <symbol id="icon-dropdown" viewBox="0 0 32 32">
    <path d="M30.126 8.292c0.366 0.366 0.54 0.801 0.54 1.289 0 0.505-0.174 0.923-0.54 1.289l-12.837 12.837c-0.366 0.366-0.801 0.54-1.289 0.54-0.505 0-0.923-0.174-1.289-0.54l-12.837-12.837c-0.366-0.366-0.54-0.801-0.54-1.289 0-0.505 0.174-0.923 0.54-1.289s0.801-0.54 1.289-0.54h25.674c0.505 0 0.923 0.174 1.289 0.54z" />
  </symbol>
  
  <symbol id="icon-x" viewBox="0 0 32 32">
    <path d="M29.75 5l-2.75-2.75-11 11-11-11-2.75 2.75 11 11-11 11 2.75 2.75 11-11 11 11 2.75-2.75-11-11z" />
  </symbol>
  <symbol id="icon-check" viewBox="0 0 42 32">
    <title>check</title>
    <path d="M15.759 30.427l24.202-24.11-4.759-4.76-21.243 21.165-7.869-7.869-4.121 4.12 11.473 11.473 0.049-0.049h2.236z" />
  </symbol>
  <symbol id="icon-check-circle" viewBox="0 0 32 32">
    <path d="M16 1.75c-7.87 0-14.25 6.38-14.25 14.25s6.38 14.25 14.25 14.25 14.25-6.38 14.25-14.25-6.38-14.25-14.25-14.25zM16 4.508c6.351 0 11.492 5.14 11.492 11.492 0 6.351-5.14 11.492-11.492 11.492-6.351 0-11.492-5.14-11.492-11.492 0-6.351 5.14-11.492 11.492-11.492zM24.056 11.993l-1.295-1.305c-0.268-0.27-0.705-0.272-0.975-0.004l-8.122 8.057-3.436-3.464c-0.268-0.27-0.705-0.272-0.975-0.004l-1.305 1.295c-0.27 0.268-0.272 0.705-0.004 0.975l5.216 5.258c0.268 0.27 0.705 0.272 0.975 0.004l9.917-9.837c0.27-0.268 0.272-0.705 0.004-0.975z" />
  </symbol>
  <symbol id="icon-sport11" viewBox="0 0 995 1024">
    <path class="path1" d="M790.741 849.304c0 0-52.494 14.99-89.995-5.015 0 0-265.569-214.331-325.585-396.881 0 0-289.554-0.654-334.578-125.699 0 0-42.517-97.517 57.507-147.557 0 0 25.020-7.467 42.517-7.467 0 0-25.020-10.029-12.538-47.532 0 0 5.015-20.005 40.010 0 0 0 27.527-67.483 95.064-82.527 67.483-14.99 117.523 10.029 127.497 42.517 0 0 47.099 112.889 49.603 292.879 0 0 290.481 209.752 340.465 287.263 0 0 65.030 77.513 47.532 132.512l2.508 20.005 133.984 179.771-173.993-142.27z" />
  </symbol>
  <symbol id="icon-sport12" viewBox="0 0 1024 1024">
    <path class="path1" d="M772.246 716.093c-5.129-5.636-12.411-8.074-19.46-7.379-17.215-12.782-50.714-39.463-84.311-76.409-19.655-21.591-36.715-43.821-50.753-66.051-3.408-7.029-33.364-70.717-68.53-204.406-37.914-144.184-67.89-206.769-133.65-279.057-44.576-49.009-106.503-79.878-165.679-82.588-53.27-2.402-102.299 16.595-145.674 56.329-41.478 37.43-64.83 85.937-67.524 140.235-3.021 61.036 21.068 127.494 62.876 173.425 65.74 72.307 125.208 108.070 265.172 159.426 137.176 50.386 197.030 87.545 197.205 87.624 0.292 0.194 29.838 20.293 65.701 59.717 24.262 26.665 45.486 55.886 63.668 86.789-1.742 7.221 0 15.143 5.382 21.050l198.869 218.639c21.493 23.664 55.963 27.459 76.778 8.501 20.837-18.938 20.276-53.6-1.221-77.244l-198.849-218.603zM515.595 370.697c0.988 3.835 1.976 7.359 2.963 11.077-6.253 9.953-21.977 32.493-50.036 59.1l-60.339-66.341 75.889-69.034 19.46 21.396c3.969 13.709 7.958 28.194 12.063 43.803zM256.098 207.322l-54.586-60.031 75.889-69.012 54.586 60.029-75.889 69.014zM347.614 155.425l55.886 61.463-75.869 69.032-55.924-61.461 75.907-69.034zM238.98 222.888l-63.883 58.111-54.568-60.029 63.862-58.093 54.588 60.011zM254.551 240.066l55.904 61.443-63.862 58.093-55.904-61.463 63.862-58.073zM326.061 318.664l49.378 54.315-63.842 58.073-49.398-54.294 63.862-58.093zM343.197 303.076l75.889-69.032 49.398 54.294-75.889 69.034-49.398-54.296zM486.298 272.152l-0.678 0.581-49.398-54.296 20.003-18.201c10.807 21.105 20.586 44.534 30.073 71.916zM444.743 179.379l-24.089 21.9-55.922-61.443 30.42-27.692c19.462 21.961 35.535 43.416 49.592 67.234zM309.292 49.291c25.114 10.38 49.088 26.141 69.826 46.144l-29.976 27.285-54.588-60.029 14.738-13.399zM284.294 40.654l-5.346 4.88-6.816-7.515c4.028 0.776 8.094 1.59 12.162 2.635zM238.071 35.018l23.759 26.123-75.889 68.996-49.959-54.916c31.313-25.989 65.567-39.504 102.088-40.202zM118.865 90.884l49.902 54.859-63.862 58.093-29.763-32.708c6.429-30.207 21.048-57.046 43.724-80.245zM71.442 201.512l16.305 17.929-14.621 13.304c-1.413-10.475-2.013-20.932-1.685-31.234zM115.69 335.046c-17.158-22.151-30.035-48.333-37.353-75.715l25.019-22.753 54.606 60.031-42.272 38.437zM130.754 352.666l42.794-38.923 55.904 61.463-36.482 33.172c-22.403-16.228-42.231-34.275-62.216-55.712zM281.388 458.531c-26.335-12.063-48.778-23.952-68.724-36.713l32.357-29.454 49.398 54.296-13.031 11.871zM304.605 468.753l5.423-4.955 10.475 11.54c-5.441-2.225-10.765-4.415-15.898-6.585zM376.717 497.008c-0.136-0.041-0.233-0.117-0.387-0.136 0.271 0.079 0.407 0.156 0.446 0.156 0-0.002-0.038-0.002-0.059-0.020zM375.846 496.678c-2.381-0.873-4.591-1.744-6.932-2.614l-41.711-45.874 63.862-58.093 60.242 66.246c-49.088 41.652-72.673 40.646-75.462 40.336zM574.657 584.417c-15.742-9.157-62.255-34.449-147.904-68.354 16.71-9.143 36.869-23.354 60.764-45.313 18.725-17.235 32.801-33.095 43.027-46.028 25.308 86.887 45.834 134.891 53.349 151.274l-9.236 8.422z" />
  </symbol>
  <symbol id="icon-sport9" viewBox="0 0 1024 1024">
    <path class="path1" d="M982.004 309.889c-27.531-62.658-63.818-116.455-109.168-161.807-45.352-45.35-99.805-80.837-162.93-107.497-62.849-26.539-128.207-40.311-197.076-40.311h-6.151c-69.431 0-135.494 14.56-198.199 41.996-62.707 27.436-116.873 64.522-162.356 110.853-45.208 46.045-80.526 100.82-106.934 164.041-26.219 62.753-39.19 128.206-39.19 197.076v2.794c0 68.869 13.891 134.981 41.422 197.639 27.328 62.193 64.246 116.037 109.742 161.245 45.769 45.483 100.27 81.040 162.916 107.495 63.327 26.733 128.768 40.312 197.639 40.312h5.59c69.431 0 135.494-14.56 198.761-41.996s116.873-64.522 162.356-110.853c45.218-46.045 80.908-100.665 106.934-164.041 25.478-62.036 38.639-126.534 38.639-194.281v-5.59c0-68.869-14.667-134.895-41.996-197.076zM941.693 646.927l-56.543-18.479c-3.919-1.672-7.836-2.232-11.753-2.232-9.519 0-17.366 4.479-23.519 13.436l-105.812 153.96c-8.408 9.519-8.408 24.641 0 34.16l32.463 48.146c-76.693 56.543-162.356 85.101-258.1 86.21v-65.499c-1.672-16.232-9.149-25.597-22.956-29.669l-178.039-52.626c-3.905-1.158-7.273-1.683-10.63-1.683-9.519 0-16.483 4.156-22.396 11.751l-39.188 50.392c-22.956-18.477-39.655-33.133-50.392-43.667-49.174-48.255-85.101-105.263-107.497-170.765l55.982-22.956c12.624-5.172 19.6-13.998 19.6-28.547v-186.995c0-12.875-9.221-24.725-21.834-28.558l-57.105-17.354c27.984-90.703 80.061-164.601 156.766-222.267l41.422 50.38c6.618 8.050 13.437 12.326 22.956 12.326 3.356 0 6.701-0.609 10.081-1.683l178.039-56.543c14.679-4.67 22.071-15.121 21.834-29.681l-1.123-66.624c92.376 0 178.037 27.436 256.427 81.746l-38.639 59.35c-3.726 5.721-5.59 11.192-5.59 16.794 0 6.164 2.269 11.729 6.713 17.917l108.621 151.164c6.341 8.826 13.436 13.437 22.956 13.437 3.917 0 7.727-0.825 11.753-2.234l65.499-22.956c13.437 40.861 20.162 84.54 20.162 131.002 0 49.828-6.723 95.741-20.16 138.847z" />
    <path class="path2" d="M586.178 345.16c-6.306-8.289-13.998-12.315-22.956-12.315-3.919 0-7.836 0.55-11.753 2.234l-174.12 57.105c-14.142 4.635-20.902 14.56-20.711 29.681l2.234 183.627c0.167 13.437 7.836 25.762 20.711 28.558l171.886 54.871c3.919 1.672 7.836 2.234 11.753 2.234 8.958 0 16.769-3.94 22.956-12.315l110.853-150.041c3.919-6.725 6.164-13.436 6.164-19.6 0-5.602-2.245-11.753-6.164-18.477l-110.853-145.562z" />
  </symbol>
  <symbol id="icon-sport5" viewBox="0 0 1024 1024">
    <path class="path1" d="M511.999 0c-282.623 0-511.999 229.376-511.999 511.999 0 282.625 229.376 511.999 511.999 511.999 282.625 0 511.999-229.376 511.999-511.999 0.002-282.623-229.374-511.999-511.999-511.999zM532.48 188.416l143.361-118.783c81.92 32.768 155.648 86.015 208.895 155.648l-61.441 159.743-155.648 65.536-135.167-106.496v-155.648zM348.159 69.633l143.361 118.783v155.648l-135.167 110.593-155.648-65.536-61.441-163.84c53.249-69.633 122.88-122.882 208.895-155.648zM126.977 782.335c-49.152-69.631-81.92-155.648-86.017-249.855l155.648-102.401 143.361 61.441 53.249 176.127-102.399 106.498-163.842 8.19zM647.168 962.561c-40.96 12.287-86.015 20.479-135.169 20.479s-90.112-8.192-135.167-20.479l-45.057-172.032 94.207-94.207h167.937l98.304 98.304-45.055 167.935zM724.993 774.145l-98.304-102.399 53.247-180.224 143.361-61.441 159.743 102.399c-4.095 94.207-36.865 180.224-86.015 249.855l-172.032-8.19z" />
  </symbol>
  <symbol id="icon-sport4" viewBox="0 0 1024 1024">
    <path class="path1" d="M487.521 469.165c-81.594-142.79-106.072-305.977-81.594-456.927 0 0-8.159 0-12.238 4.081-57.116 12.24-110.153 36.716-159.107 65.275-12.24 8.159-28.559 20.397-24.478 16.319-32.637 183.585 8.159 383.49 130.55 542.599 57.116-44.878 106.070-106.074 146.867-171.347z" />
    <path class="path2" d="M161.146 138.709c0 0-16.319 16.319-28.557 28.559-81.594 89.753-130.55 212.144-130.55 342.694 0 89.753 20.397 171.347 61.196 244.781 4.081 12.238 16.319 24.478 12.238 20.397 81.594-20.397 159.109-57.116 228.462-106.072-114.231-159.109-163.187-346.774-142.79-530.359z" />
    <path class="path3" d="M1017.882 452.846c-4.081-20.397-8.159-40.797-4.081-32.637-146.869-138.709-350.853-212.144-567.075-187.666 12.24 73.434 36.716 146.869 77.513 216.222 187.668 4.081 354.934 77.515 481.403 195.825 0 4.081 4.081-12.238 4.081-24.478 8.159-36.718 12.238-73.434 12.238-110.153 0-20.397 0-40.795-4.079-57.113z" />
    <path class="path4" d="M993.402 346.772c0 4.081-4.079-16.319-12.238-28.559-73.434-187.663-257.019-318.213-469.163-318.213-16.319 0-32.637 0-48.956 4.081-8.159 0-16.319 0-12.238 0-12.238 61.196-12.238 126.471-8.159 187.666 203.982-28.559 399.807 32.637 550.754 155.026z" />
    <path class="path5" d="M299.855 975.046c-4.079 0 8.159 4.079 12.24 8.157 61.196 24.48 130.55 40.797 199.904 40.797 212.144 0 395.731-130.548 469.165-314.135 4.079-8.159 8.159-20.397 8.159-16.319-57.116-57.116-126.471-106.072-203.984-142.79-89.753 212.146-273.338 367.172-485.484 424.289z" />
    <path class="path6" d="M748.621 530.359c-69.356-24.478-146.869-40.797-224.384-40.797-97.912 163.187-252.941 273.34-424.287 322.296 0-4.081 8.159 8.157 12.24 16.317 28.557 36.718 61.196 69.356 101.991 93.832 12.238 8.159 28.557 20.397 28.557 20.397 220.305-40.795 412.051-191.742 505.883-412.045z" />
  </symbol>
  <symbol id="icon-sport7" viewBox="0 0 1024 1024">
    <path class="path1" d="M392.864 290.197c-13.82-1.974-27.444-3.422-40.77-4.475-30.076 62.785-50.346 130.999-59.033 202.964 92.104-0.329 245.38 37.71 294.278 280.293 24.054 120.074 81.574 181.246 177.955 187.992 79.567-45.311 145.642-111.42 191.151-190.756-78.81-245.215-291.547-436.958-563.58-476.017z" />
    <path class="path2" d="M246.235 535.347c-70.188 10.662-119.152 38.434-145.51 82.396-37.315 62.192-22.212 143.832-11.155 183.615 71.208 103.785 179.732 180.061 306.256 209.381-94.835-118.823-150.38-271.737-150.38-442.815-0.033-10.925 0.329-21.718 0.79-32.577z" />
    <path class="path3" d="M326.822 241.332c19.382-36.328 41.758-70.814 67.062-103.127-60.382-21.060-78.876-65.285-80.718-98.027-123.562 52.222-222.543 151.499-274.074 275.554 78.579-48.931 168.544-74.762 267.624-74.762 6.614 0.066 13.393 0.23 20.106 0.362z" />
    <path class="path4" d="M249.624 491.648c8.029-73.249 27.411-143.141 56.335-207.834-115.006 0.23-211.026 36.197-289.276 98.389-10.925 41.429-16.683 84.93-16.683 129.88 0 65.154 12.175 127.642 34.387 185.096 1.974-33.696 10.168-69.037 29.418-101.35 34.551-57.651 97.138-92.663 185.82-104.18z" />
    <path class="path5" d="M424.092 102.403c33.86-37.809 71.867-71.965 113.164-101.581-8.424-0.428-16.881-0.658-25.239-0.658-98.126 0-155.481 26.785-155.481 26.785-1.020 6.055-7.141 58.375 67.556 75.453z" />
    <path class="path6" d="M927.421 212.934l-0.888 0.625c-95.888-119.843-250.71-57.487-252.323-56.861-42.087 17.44-118.889 15.005-234.455-7.371-24.712 29.615-46.858 61.501-66.075 95.361 8.358 0.856 16.848 1.843 25.403 3.060 195.264 28.003 367.823 130.505 486.054 288.289 41.132 54.953 73.973 114.315 98.027 176.507 26.325-61.534 40.803-129.386 40.803-200.463-0.099-111.716-35.835-215.040-96.546-299.148z" />
    <path class="path7" d="M657.79 117.145c35.736-14.873 96.842-27.509 160.087-15.466-62.159-46.595-135.342-79.073-214.843-93.42-47.615 29.056-91.182 63.969-129.847 103.785 112.9 19.711 162.687 14.15 184.602 5.1z" />
    <path class="path8" d="M545.383 777.436c-42.547-211.322-168.478-247.815-256.041-246.104-0.691 12.076-1.020 24.186-1.020 36.394 0 176.146 63.245 335.871 173.052 453.543 16.65 1.547 33.564 2.468 50.708 2.468 66.569 0 130.34-12.735 188.847-35.933-80.652-26.687-132.775-97.040-155.546-210.368z" />
  </symbol>
  <symbol id="icon-sport1" viewBox="0 0 1024 1024">
    <path class="path1" d="M871.574 152.352c-99.946-99.946-219.094-149.97-361.597-149.97-142.135 0-261.459 49.979-361.413 149.97-99.946 99.946-149.97 219.279-146.049 361.597-3.913 142.135 46.095 261.459 146.049 361.413 99.946 96.238 219.279 146.242 361.413 146.242 142.53 0 261.609-49.979 361.597-146.242 96.065-99.946 146.242-219.279 150.112-361.413-3.874-142.328-54.050-261.609-150.112-361.597zM317.851 225.373c11.511 11.511 15.419 23.059 19.137 42.345-3.729 11.511-7.628 26.923-19.137 38.472-11.511 11.511-26.923 19.137-42.345 19.137s-30.689-7.628-42.345-19.137c-11.511-11.511-19.137-26.923-15.264-38.472-3.913-19.335 3.729-30.84 15.264-42.345 11.698-11.511 26.923-19.137 42.345-19.137s30.805 7.628 42.345 19.137zM436.935 344.655c11.698 11.511 15.419 23.059 19.335 42.183-3.913 11.698-7.628 26.923-19.335 38.472-11.511 11.511-26.757 19.335-42.183 19.335s-30.84-7.787-42.345-19.335c-11.511-11.511-19.137-26.757-15.419-38.472-3.729-19.137 3.913-30.689 15.419-42.183s26.923-19.335 42.345-19.335 30.689 7.815 42.183 19.335z" />
  </symbol>
  <symbol id="icon-sport0" viewBox="0 0 1024 1024">
    <path class="path1" d="M521.107 0c0.583 7.577 0.816 15.154 0.816 22.732 0 80.901-31.474 156.906-88.711 214.143l-91.044 91.043c-47.328 47.328-73.324 110.161-73.324 177.073s25.996 129.745 73.324 177.073c47.329 47.328 110.161 73.323 177.074 73.323 66.911 0 129.745-25.996 177.072-73.323l91.045-91.043c57.237-57.237 133.242-88.711 214.143-88.711 7.577 0 15.037 0.233 22.498 0.816-2.215-128.113-52.108-255.411-149.913-353.214-97.687-97.686-224.984-147.58-352.98-149.912z" />
    <path class="path2" d="M824.428 628.091l-91.043 91.044c-57.238 57.236-133.243 88.71-214.143 88.71-80.902 0-156.907-31.474-214.144-88.711-57.237-57.238-88.711-133.242-88.711-214.143s31.474-156.906 88.711-214.143l91.043-91.043c47.329-47.328 73.324-110.161 73.324-177.073 0-6.994-0.35-13.989-0.933-20.983-116.222 9.792-229.764 59.219-318.592 148.163-199.921 199.921-199.921 524.108 0 724.146 199.921 199.921 524.11 199.921 724.146 0 88.828-88.827 138.256-202.253 148.164-318.474-6.878-0.583-13.756-0.816-20.75-0.816-66.912 0-129.861 25.996-177.073 73.323z" />
  </symbol>
  <symbol id="icon-sport2" viewBox="0 0 1024 1024">
    <path class="path1" d="M126.004 755.178c-18.934-20.64-47.656-24.888-64.171-9.419-16.489 15.443-29.909 27.939-29.909 27.939s-77.275 72.034 35.063 198.618c44.596 50.312 97.845 55.263 135.633 50.066 27.737-3.79 61.903-25.371 78.269-39.741 16.366-14.299 14.273-42.687-4.626-63.327l-150.258-164.135z" />
    <path class="path2" d="M997.415 563.666c-20.359-23.709-51.78-23.806-72.341-20.658-3.738 0.572-7.51-0.809-10.034-3.632-2.506-2.849-3.395-6.78-2.374-10.421 7.141-25.301 1.319-53.486-18.011-73.986-17.395-18.406-41.588-26.224-64.919-23.542-4.758 0.554-9.489-1.178-12.778-4.643s-4.731-8.293-3.949-13.015c3.993-23.129-2.427-47.726-19.84-66.133-19.145-20.165-46.381-27.702-71.673-22.548-3.694 0.748-7.466-0.431-10.017-3.166-2.568-2.709-3.562-6.552-2.603-10.175 6.578-24.993 0.598-52.669-18.485-72.834-15.566-16.489-36.628-24.501-57.629-24.052-6.024 0.123-11.802-2.295-15.944-6.657-4.142-4.38-6.261-10.289-5.778-16.296 1.627-20.939-5.197-42.415-20.781-58.93-17.958-19.031-43.206-26.787-67.241-23.322-4.599 0.668-9.225-0.941-12.409-4.309s-4.547-8.091-3.623-12.629c4.837-23.815-1.495-49.45-19.47-68.463-29.496-31.123-78.629-32.477-109.814-3.043-11.978 11.318-19.453 25.565-22.575 40.541-1.724 1.407-125.652 489.566-125.652 489.566-6.763 27.183-28.775 64.752-49.239 83.888l-1.917 1.785c-20.464 19.145-21.687 51.402-2.761 72.113l151.692 165.604c18.925 20.622 51.332 22.364 72.368 3.861l16.99-14.897c21.036-18.459 60.021-39.477 86.993-46.926l445.938-122.847c18.019-5.356 31.985-8.407 44.719-20.482 31.184-29.417 31.017-77.231 3.157-109.752zM349.025 610.249c-4.292 12.716-16.146 20.719-28.836 20.719-3.227 0-6.49-0.528-9.735-1.609-15.935-5.373-24.483-22.628-19.127-38.58l92.999-275.602c5.373-15.918 22.592-24.501 38.58-19.119 15.918 5.373 24.483 22.663 19.092 38.58l-92.973 275.611zM414.015 590.488l206.269-199.515c12.083-11.696 31.351-11.38 43.065 0.712 11.661 12.083 11.38 31.36-0.721 43.039l-206.277 199.515c-5.919 5.681-13.561 8.548-21.15 8.548-7.95 0-15.909-3.113-21.889-9.269-11.705-12.074-11.371-31.369 0.704-43.030zM727.327 662.144l-276.033 91.794c-3.175 1.038-6.429 1.521-9.586 1.521-12.778 0-24.65-8.064-28.889-20.816-5.294-15.944 3.324-33.198 19.286-38.519l276.016-91.759c16.005-5.303 33.172 3.351 38.492 19.251 5.294 15.997-3.342 33.251-19.286 38.528z" />
  </symbol>
  <symbol id="icon-sport8" viewBox="0 0 1024 1024">
    <path class="path1" d="M512 38.295c-261.41 0-473.705 212.297-473.705 473.705s212.297 473.705 473.705 473.705 473.705-212.297 473.705-473.705c0-261.41-212.297-473.705-473.705-473.705zM926.223 367.286l-73.437 127.165h-155.201l-77.599-134.428 77.599-134.374h146.801c35.543 41.196 63.51 89.122 81.834 141.635zM667.201 512l-77.599 134.374h-155.201l-77.599-134.374 77.599-134.428h155.201l77.599 134.428zM810.549 190.571h-112.96l-56.473-97.917c63.942 19.641 121.647 53.509 169.437 97.917zM512 73.374c28.006 0 55.373 2.631 81.864 7.64l73.294 127.094-77.599 134.374h-155.201l-77.599-134.428 73.333-127.094c26.551-4.954 53.902-7.622 81.906-7.622zM382.885 92.659l-56.473 97.877h-112.96c47.778-44.362 105.496-78.246 169.437-97.877zM179.617 225.608l146.801 0.007 77.599 134.374-77.599 134.374h-155.201l-73.437-127.165c18.327-52.48 46.284-100.415 81.834-141.635zM73.374 512c0-33.655 3.799-66.407 10.956-97.877l56.498 97.877-56.498 97.847c-7.154-31.458-10.956-64.188-10.956-97.847zM97.777 656.714l73.437-127.165h155.201l77.599 134.374-77.599 134.428h-146.833c-35.518-41.247-63.479-89.172-81.801-141.635zM213.427 833.429h112.999l56.498 97.917c-64.013-19.641-121.721-53.509-169.5-97.917zM512 950.626c-28.006 0-55.373-2.631-81.864-7.64l-73.333-127.094 77.599-134.374h155.201l77.599 134.374-73.333 127.094c-26.495 5.010-53.865 7.64-81.864 7.64zM641.081 931.341l56.498-97.917h112.999c-47.778 44.415-105.496 78.279-169.5 97.917zM844.408 798.33h-146.833l-77.599-134.374 77.599-134.374h155.201l73.437 127.165c-18.327 52.441-46.284 100.363-81.801 141.605zM883.165 512l56.54-97.877c7.154 31.458 10.956 64.222 10.956 97.877s-3.799 66.407-10.956 97.877l-56.54-97.877z" />
  </symbol>
  <symbol id="icon-sport6" viewBox="0 0 1024 1024">
    <path class="path1" d="M673.532 61.71l-280.926 721.979c0 0-25.282 75.849-67.423 61.804-36.521-16.855-39.329-36.521-50.567-98.325-19.665-33.713-89.895-36.521-106.752 28.092 22.474 272.499 261.261 193.838 289.354 123.608 14.047-42.14 275.308-823.112 275.308-823.112l-58.995-14.047z" />
    <path class="path2" d="M246.525 589.852c44.948 0 78.659-36.521 78.659-78.659 0-44.948-36.521-78.659-78.659-78.659-44.948 0-78.659 36.521-78.659 78.659s36.521 78.659 78.659 78.659z" />
  </symbol>
  <symbol id="icon-sport3" viewBox="0 0 1024 1024">
    <path class="path1" d="M815.153 372.364v-46.545c-9.314-181.526-167.564-325.818-344.439-325.818h-46.545c-181.526 0-335.127 144.292-344.436 325.818l-9.309 46.545c-4.656 51.201 4.656 97.747 18.618 139.636h707.491c13.965-41.89 23.274-88.435 18.621-139.636z" />
    <path class="path2" d="M466.061 791.273h-46.545c-27.927 0-55.855-4.653-79.128-9.309l-13.962 195.491c0 27.927 18.618 46.545 46.545 46.545h139.636c27.927 0 46.545-18.618 46.545-46.545l-13.965-195.491c-23.274 4.656-51.199 9.309-79.126 9.309z" />
    <path class="path3" d="M107.659 558.545c55.855 111.709 172.219 186.182 311.856 186.182h46.545c139.636 0 256.001-74.473 311.853-186.182h-670.255z" />
    <path class="path4" d="M954.789 767.999c0 51.413-41.678 93.091-93.091 93.091s-93.091-41.678-93.091-93.091c0-51.413 41.678-93.091 93.091-93.091s93.091 41.678 93.091 93.091z" />
  </symbol>
  <symbol id="icon-sport13" viewBox="0 0 32 32">
    <path d="M31.578 5.506l-1.072 1.3c-1.441 1.737-2.341 3.859-2.587 6.103 0.456 0.434 0.731 1.016 0.788 1.631 0.047 0.547 0 1.803-0.925 3.956-1.128 2.613-4.572 4.278-4.894 4.447-0.594 0.366-1.347 0.331-1.916-0.081-1.938-1.425-3.706-3.056-5.291-4.869l-0.797-0.913c-0.056-0.056-0.103-0.125-0.147-0.194l-0.797-0.912c-0.844-0.959-1.744-1.859-2.703-2.703l-0.012 0.012c-0.662 0.375-2.944 2.463-2.725 4.403 2.1 2.909 3.091 6.466 2.781 10.047-0.081 0.947-0.9 1.644-1.847 1.563s-1.644-0.9-1.563-1.847c0.159-1.881-0.138-3.762-0.878-5.497-0.569 1.997-1.55 3.844-2.875 5.441l-1.072 1.3c-0.603 0.731-1.675 0.831-2.406 0.228s-0.831-1.675-0.228-2.406l1.072-1.3c1.528-1.847 2.453-4.116 2.634-6.512v-0.034c-0.366-0.409-0.594-0.925-0.638-1.472-0.047-0.547 0.013-1.803 0.934-3.956 1.038-2.394 4.141-4.072 4.903-4.472 0.047-0.022 0.103-0.056 0.147-0.081 0.569-0.262 1.231-0.206 1.744 0.172 1.938 1.425 3.706 3.056 5.291 4.869l0.797 0.912c0.056 0.056 0.103 0.125 0.147 0.194l0.797 0.912c0.844 0.959 1.744 1.859 2.691 2.703 0.616-0.422 1.7-1.175 2.131-1.997 0.663-1.244 0.547-1.872 0.538-1.972-2.178-2.931-3.216-6.556-2.897-10.197 0.081-0.947 0.9-1.644 1.847-1.563s1.644 0.9 1.563 1.847c-0.159 1.881 0.137 3.763 0.878 5.497 0.569-1.997 1.55-3.844 2.875-5.441l1.072-1.3c0.581-0.741 1.666-0.866 2.406-0.284s0.866 1.666 0.284 2.406c-0.016 0.025-0.028 0.050-0.050 0.059zM14.916 8.884c1.425-0.284 2.35-1.675 2.066-3.103-0.284-1.425-1.675-2.35-3.103-2.066s-2.35 1.675-2.066 3.103 1.678 2.35 3.103 2.066zM17.241 22.844c-1.425 0.284-2.35 1.675-2.066 3.103s1.675 2.35 3.103 2.066c1.425-0.284 2.35-1.675 2.066-3.103s-1.675-2.353-3.103-2.066z" />
  </symbol>
  <symbol id="icon-sport15" viewBox="0 0 27 32">
    <path d="M8.73 29.482h-5.624l5.698-26.964h6.234c2.961 0 5.233 0.661 6.75 1.964s2.286 3.285 2.286 5.892c0.001 0.048 0.001 0.104 0.001 0.16 0 1.376-0.288 2.685-0.807 3.87l0.024-0.062c-0.554 1.205-1.348 2.214-2.328 3.001l-0.016 0.012c-2.075 1.679-4.976 2.536-8.623 2.536h-1.582l-2.014 9.59zM18.072 13.503c-0.731 0-1.323 0.593-1.323 1.324s0.593 1.324 1.324 1.324 1.324-0.593 1.324-1.324v0c-0.001-0.73-0.593-1.322-1.323-1.324h-0zM14.101 13.503c-0.731 0-1.323 0.593-1.323 1.324s0.593 1.324 1.324 1.324 1.324-0.593 1.324-1.324v0c-0.001-0.731-0.593-1.323-1.324-1.324h-0zM19.396 9.532c-0.731 0-1.323 0.593-1.323 1.324s0.593 1.324 1.324 1.324 1.324-0.593 1.324-1.324v0c-0.001-0.731-0.593-1.323-1.324-1.324h-0zM15.425 9.532c-0.731 0-1.324 0.593-1.324 1.324s0.593 1.324 1.324 1.324c0.731 0 1.324-0.593 1.324-1.324v0c-0.001-0.73-0.593-1.322-1.323-1.324h-0zM11.454 9.532c-0.731 0-1.324 0.593-1.324 1.324s0.593 1.324 1.324 1.324c0.731 0 1.324-0.593 1.324-1.324v0c-0.001-0.73-0.593-1.322-1.323-1.324h-0zM18.073 5.56c-0.731 0-1.323 0.593-1.323 1.324s0.593 1.324 1.324 1.324 1.324-0.593 1.324-1.324c0-0 0-0.001 0-0.001v0c-0.001-0.731-0.593-1.323-1.324-1.324h-0zM14.102 5.56c-0.731 0-1.323 0.593-1.323 1.324s0.593 1.324 1.324 1.324 1.324-0.593 1.324-1.324c0-0 0-0.001 0-0.001v0c-0.001-0.731-0.594-1.323-1.324-1.324h-0z" />
  </symbol>
  <symbol id="icon-sport16" viewBox="0 0 38 32">
    <path d="M29.599 24.851c0.069 0.041 0.151 0.069 0.206 0.123 1.153 1.262 2.305 2.511 3.431 3.801 0.645 0.727 0.59 1.111-0.151 1.784-0.288 0.261-0.563 0.508-0.864 0.741-0.439 0.343-0.837 0.329-1.235-0.055-0.453-0.467-0.892-0.947-1.317-1.441-1.111-1.331-2.209-2.676-3.334-3.993-0.123-0.151-0.357-0.329-0.521-0.316-0.549 0.069-0.919-0.233-1.153-0.617-0.617-1.043-1.592-1.208-2.662-1.166-0.837 0.041-1.674 0.137-2.511 0.22-0.453 0.041-0.919 0.082-1.372 0.137-2.511 0.288-4.487-0.727-6.161-2.484-1.427-1.523-2.84-3.060-4.254-4.597-0.37-0.398-0.727-0.796-1.098-1.194-1.88-2.072-2.264-5.132-0.178-7.561 0.247-0.288 0.494-0.576 0.782-0.823 1.935-1.702 3.856-3.417 5.818-5.077 0.576-0.48 1.235-0.892 1.921-1.208 1.578-0.727 3.156-0.604 4.693 0.22 0.672 0.371 1.262 0.837 1.756 1.441 1.688 2.045 3.403 4.089 5.077 6.147 0.439 0.549 0.81 1.153 1.139 1.77 0.81 1.564 0.892 3.211 0.467 4.899-0.22 0.864-0.48 1.715-0.659 2.593-0.137 0.659-0.206 1.331-0.247 2.003-0.041 0.563 0.123 1.015 0.604 1.413 0.425 0.343 0.81 0.782 0.714 1.468-0.027 0.22 0.192 0.48 0.329 0.7 0.261 0.37 0.549 0.727 0.823 1.098-0.425-0.453-0.864-0.892-1.262-1.358-0.11-0.123-0.206-0.37-0.165-0.521 0.192-0.686-0.357-0.974-0.7-1.345-0.206-0.233-0.508-0.178-0.741 0.014-0.672 0.576-1.358 1.166-2.003 1.784-0.137 0.123-0.22 0.384-0.206 0.576 0.041 0.425 0.741 1.043 1.18 1.057 0.329 0 0.59 0.137 0.782 0.357 1.153 1.372 2.278 2.758 3.417 4.13 0.412 0.494 0.851 0.988 1.29 1.455 0.233 0.247 0.535 0.288 0.796 0.055 0.398-0.329 0.782-0.672 1.153-1.029 0.274-0.261 0.274-0.576 0.096-0.892-0.096-0.165-0.22-0.302-0.357-0.453-0.961-1.070-1.935-2.127-2.882-3.197-0.165-0.192-0.302-0.425-0.439-0.659zM26.937 21.187c-0.178-1.111-0.137-2.223 0.206-3.334 0.247-0.796 0.398-1.633 0.617-2.443 0.549-2.045 0.11-3.911-1.043-5.64-0.178-0.274-0.37-0.535-0.576-0.782-1.619-1.962-3.238-3.925-4.871-5.887-0.261-0.316-0.535-0.604-0.851-0.865-1.798-1.509-3.993-1.729-6.038-0.563-0.535 0.302-1.029 0.7-1.523 1.084-0.631 0.508-1.235 1.043-1.852 1.592-1.18 1.043-2.36 2.072-3.513 3.142-0.412 0.384-0.796 0.81-1.139 1.262-1.633 2.113-1.331 4.83 0.288 6.641 1.866 2.086 3.774 4.117 5.667 6.161 0.645 0.7 1.427 1.249 2.292 1.66 0.988 0.48 2.045 0.7 3.156 0.631 0.727-0.055 1.455-0.151 2.182-0.233 0.59-0.069 1.18-0.192 1.77-0.178 0.823 0.014 1.647 0.137 2.443 0.22 0.892-0.796 1.811-1.605 2.786-2.47z" />
    <path d="M26.25 18.36c-1.413-0.247-2.703-0.11-3.801 0.823-1.098 0.947-1.413 2.196-1.386 3.609-0.576 0.37-1.262 0.247-1.88 0.384-0.439 0.11-0.919 0.11-1.372 0.151-2.196 0.206-3.952-0.7-5.461-2.196-0.659-0.645-1.249-1.345-1.88-2.031-1.098-1.194-2.209-2.388-3.307-3.595-1.756-1.921-1.894-4.501-0.316-6.6 0.357-0.48 0.768-0.906 1.221-1.304 1.633-1.468 3.28-2.923 4.94-4.364 0.508-0.439 1.070-0.837 1.66-1.153 2.209-1.221 4.666-0.741 6.285 1.098 1.756 1.99 3.431 4.062 5.091 6.134 0.823 1.029 1.372 2.209 1.496 3.54 0.041 0.453 0.027 0.919-0.041 1.372-0.247 1.413-0.768 2.744-1.249 4.13zM26.168 9.962c-0.096-0.165-0.123-0.274-0.192-0.357-1.743-2.113-3.431-4.281-5.228-6.326-1.153-1.317-2.703-1.88-4.487-1.537-0.947 0.178-1.798 0.617-2.525 1.249-1.976 1.688-3.938 3.389-5.873 5.146-0.508 0.467-0.919 1.070-1.276 1.66-0.467 0.782-0.672 1.66-0.549 2.58 0.151 1.18 0.617 2.237 1.455 3.115 1.674 1.798 3.348 3.609 5.036 5.407 0.178 0.192 0.384 0.357 0.617 0.563 4.364-3.856 8.672-7.657 13.022-11.499zM26.909 11.472c-0.165 0.11-0.274 0.151-0.343 0.22-3.952 3.527-7.918 7.067-11.87 10.593-0.014 0.014-0.027 0.041-0.027 0.069s0.014 0.055 0.027 0.082c0.714 0.412 0.727 0.425 1.317-0.096 2.882-2.511 5.75-5.022 8.631-7.52 0.714-0.617 1.413-1.262 2.154-1.852 0.398-0.329 0.508-0.659 0.288-1.125-0.082-0.082-0.11-0.192-0.178-0.37zM13.503 21.667c0.59 0.563 0.59 0.563 1.084 0.151 0.151-0.123 0.288-0.247 0.425-0.37 1.88-1.66 3.774-3.334 5.654-4.995s3.774-3.334 5.654-5.009c0.494-0.439 0.48-0.453-0.014-1.098l-12.803 11.321z" />
    <path d="M33.345 29.022c-0.316-0.384-0.617-0.796-0.974-1.139-1.331-1.235-2.401-2.69-3.65-4.007-0.274-0.288-0.59-0.631-0.357-1.139 0.055-0.123-0.11-0.398-0.233-0.549-0.247-0.288-0.549-0.535-0.796-0.823-0.22-0.247-0.316-0.535-0.343-0.892-0.096-1.249 0.274-2.401 0.576-3.581 0.274-1.098 0.59-2.182 0.59-3.334 0-1.29-0.384-2.456-1.084-3.485-0.796-1.166-1.702-2.25-2.593-3.348-0.988-1.208-2.017-2.388-3.005-3.581-0.768-0.933-1.647-1.647-2.84-2.058-1.455-0.508-2.772-0.274-4.075 0.357-0.961 0.453-1.715 1.194-2.511 1.88-1.605 1.345-3.197 2.717-4.734 4.144-0.892 0.851-1.688 1.798-1.976 3.074-0.247 1.111-0.192 2.443 0.247 3.417 0.343 0.768 0.823 1.427 1.386 2.031 1.647 1.798 3.307 3.581 4.967 5.379 0.686 0.755 1.482 1.372 2.36 1.866 1.166 0.659 2.443 0.81 3.746 0.727 1.249-0.082 2.497-0.261 3.746-0.398 0.851-0.082 1.66 0.096 2.443 0.412l0.069-0.069c-0.014 0.123 0.027 0.261 0.165 0.398 0.274 0.274 0.48 0.604 0.741 0.892 0.069 0.082 0.233 0.178 0.316 0.151 0.7-0.206 0.961 0.329 1.304 0.741 0.837 0.988 1.756 1.907 2.497 2.95 0.549 0.768 1.153 1.441 1.811 2.099 0.316 0.316 0.645 0.357 0.974 0.082 0.398-0.329 0.768-0.686 1.139-1.057 0.329-0.316 0.357-0.81 0.096-1.139zM24.069 13.64c-1.921 1.702-3.856 3.403-5.777 5.132-1.317 1.18-2.607 2.388-3.911 3.581l-1.057-0.549 13.022-11.664c-0.467 0.384-0.933 0.741-1.386 1.139-3.828 3.389-7.657 6.779-11.472 10.168-0.11 0.096-0.261 0.137-0.37 0.192-0.082-0.055-0.151-0.069-0.192-0.11-1.921-2.058-3.87-4.103-5.763-6.189-0.412-0.453-0.768-1.043-0.961-1.619-0.233-0.672-0.467-1.386-0.343-2.1 0.22-1.235 0.672-2.374 1.619-3.252 1.29-1.18 2.593-2.346 3.897-3.499 0.878-0.782 1.756-1.564 2.69-2.264 0.686-0.521 1.482-0.851 2.346-0.988 1.949-0.316 3.485 0.508 4.693 1.894 0.961 1.098 1.852 2.264 2.786 3.403 0.741 0.892 1.496 1.77 2.182 2.69 0.37 0.508 0.604 1.098 0.933 1.702-0.165 0-0.233-0.027-0.261 0-0.892 0.755-1.784 1.537-2.676 2.333z" />
    <path d="M26.991 11.444c0.453 0.563 0.329 1.18 0.165 1.784M16.096 22.834c-0.645 0.165-1.194 0.082-1.715-0.398-0.329-0.288-0.851-0.329-1.125-0.741" />
  </symbol>
  <symbol id="icon-message" viewBox="200 -100 1000 1024">
    <path class="path1" d="M982.479 9.581h-621.158c-78.47 0-141.651 52.294-141.651 117.676v501.281c0 65.382 63.181 117.676 141.651 117.676h47.951l169.97 265.871 2.201 4.343 172.171-270.273h228.866c78.47 0 141.651-52.294 141.651-117.676v-501.281c0-65.382-63.181-117.676-141.651-117.676v0zM986.88 458.515h-627.644v-74.127h627.644v74.127zM986.88 321.207h-627.644v-76.269h627.644v76.269z" />
  </symbol>
  <symbol id="icon-search" viewBox="0 0 32 32">
    <title>Search</title>
    <path d="M31.802 29.177c0 0.645-0.238 1.2-0.713 1.676s-1.030 0.713-1.676 0.713c-0.668 0-1.234-0.238-1.676-0.713l-6.386-6.374c-2.219 1.54-4.699 2.31-7.439 2.31-1.778 0-3.476-0.34-5.095-1.030s-3.023-1.619-4.189-2.797c-1.178-1.177-2.106-2.57-2.797-4.189s-1.030-3.317-1.030-5.095c0-1.778 0.34-3.476 1.030-5.095s1.619-3.023 2.797-4.189c1.178-1.178 2.57-2.106 4.189-2.797s3.317-1.030 5.095-1.030c1.778 0 3.476 0.34 5.095 1.030s3.023 1.619 4.189 2.797c1.177 1.178 2.106 2.57 2.797 4.189s1.030 3.317 1.030 5.095c0 2.729-0.77 5.208-2.31 7.439l6.386 6.386c0.464 0.453 0.702 1.019 0.702 1.676zM19.812 19.576c1.63-1.63 2.446-3.6 2.446-5.899s-0.815-4.268-2.446-5.899c-1.63-1.63-3.6-2.446-5.899-2.446s-4.268 0.815-5.899 2.446c-1.63 1.63-2.446 3.6-2.446 5.899s0.815 4.268 2.446 5.899c1.63 1.63 3.6 2.446 5.899 2.446s4.268-0.815 5.899-2.446z" />
  </symbol>
  <symbol id="icon-chevron_right" viewBox="0 0 42 32">
    <path d="M11.093 28.261l3.728 3.739 16.024-15.976-15.976-16.024-3.739 3.726 12.248 12.287z" />
  </symbol>
  <symbol id="icon-chevron_left" viewBox="0 0 42 32">
    <path d="M30.84 3.288l-3.728-3.739-16.024 15.976 15.976 16.024 3.739-3.726-12.248-12.287z" />
  </symbol>
  <symbol id="icon-mail" viewBox="200 0 1000 800">
    <path class="path1" d="M670.846 544.499l485.893-343.926c-15.579-25.781-43.508-43.197-75.82-43.197h-820.053c-32.281 0-60.27 17.415-75.757 43.228l485.738 343.895z" />
    <path class="path2" d="M695.57 632.51l-0.654-0.902c-6.748 5.224-14.803 8.863-23.978 8.863-9.236 0-17.353-3.639-24.040-8.925l-0.684 0.965-473.982-335.528v480.98c0 48.949 39.683 88.632 88.664 88.632h820.053c49.012 0 88.664-39.652 88.664-88.632v-481.042l-474.045 335.591z" />
  </symbol>
  <symbol id="icon-facebook" viewBox="0 0 1024 1024">
    <title>Facebook</title>
    <path class="path1" d="M743.553 561.308l22.323-173.682h-171.719v-110.881c0-50.29 13.984-84.634 86.103-84.634h91.993v-155.282c-15.947-2.208-70.405-6.868-133.94-6.868-132.713 0-223.233 80.954-223.233 229.613v128.054h-149.887v173.682h149.887v445.488h179.077v-445.488h149.396z" />
  </symbol>
  <symbol id="icon-youtube-logo" viewBox="0 0 32 32">
    <title>Youtube</title>
    <path d="M25.223 23.407h-1.756l0.008-1.020c0-0.453 0.372-0.824 0.827-0.824h0.112c0.456 0 0.829 0.371 0.829 0.824l-0.020 1.020zM18.636 21.221c-0.445 0-0.81 0.299-0.81 0.666v4.961c0 0.366 0.364 0.665 0.81 0.665 0.447 0 0.812-0.299 0.812-0.665v-4.961c0-0.367-0.365-0.666-0.812-0.666zM29.333 18.446v9.438c0 2.264-1.963 4.116-4.363 4.116h-17.941c-2.4 0-4.363-1.852-4.363-4.116v-9.438c0-2.264 1.963-4.117 4.363-4.117h17.941c2.4 0 4.363 1.853 4.363 4.117zM8.226 28.908l-0.001-9.942 2.224 0.001v-1.473l-5.929-0.009v1.448l1.851 0.005v9.969h1.855zM14.893 20.448h-1.854v5.309c0 0.768 0.047 1.152-0.003 1.287-0.151 0.412-0.828 0.849-1.093 0.044-0.045-0.141-0.005-0.566-0.006-1.295l-0.007-5.345h-1.844l0.006 5.262c0.001 0.806-0.018 1.408 0.006 1.681 0.045 0.483 0.029 1.045 0.477 1.366 0.834 0.601 2.433-0.090 2.833-0.949l-0.004 1.096 1.489 0.002-0-8.459zM20.825 26.527l-0.004-4.418c-0.001-1.684-1.261-2.692-2.971-1.33l0.007-3.285-1.852 0.003-0.009 11.339 1.523-0.022 0.139-0.706c1.946 1.785 3.169 0.562 3.167-1.58zM26.628 25.941l-1.39 0.007c-0.001 0.055-0.003 0.119-0.004 0.188v0.776c0 0.415-0.343 0.753-0.76 0.753h-0.272c-0.417 0-0.761-0.338-0.761-0.753v-2.041h3.184v-1.198c0-0.876-0.022-1.751-0.095-2.252-0.228-1.584-2.451-1.835-3.574-1.024-0.352 0.253-0.622 0.592-0.778 1.047-0.158 0.455-0.236 1.078-0.236 1.868v2.635c0.001 4.38 5.321 3.761 4.686-0.006zM19.496 11.638c0.096 0.233 0.244 0.421 0.446 0.563 0.199 0.14 0.454 0.21 0.759 0.21 0.267 0 0.504-0.072 0.71-0.221s0.379-0.37 0.52-0.665l-0.035 0.727h2.067v-8.79h-1.627v6.841c0 0.37-0.305 0.674-0.678 0.674-0.371 0-0.677-0.303-0.677-0.674v-6.841h-1.698v5.929c0 0.755 0.014 1.259 0.036 1.514 0.023 0.254 0.081 0.497 0.177 0.732zM13.233 6.674c0-0.844 0.070-1.503 0.21-1.978 0.141-0.473 0.394-0.854 0.76-1.141 0.365-0.288 0.833-0.433 1.401-0.433 0.478 0 0.888 0.094 1.23 0.278 0.344 0.185 0.609 0.425 0.793 0.721 0.187 0.297 0.315 0.603 0.383 0.915 0.069 0.317 0.103 0.795 0.103 1.439v2.223c0 0.815-0.033 1.415-0.096 1.796-0.063 0.382-0.198 0.736-0.407 1.068-0.206 0.329-0.473 0.574-0.795 0.731-0.326 0.158-0.7 0.236-1.121 0.236-0.471 0-0.868-0.065-1.195-0.201-0.328-0.135-0.582-0.339-0.762-0.609-0.182-0.271-0.311-0.601-0.388-0.986s-0.115-0.963-0.115-1.733l0.001-2.327zM14.852 10.165c0 0.498 0.37 0.904 0.822 0.904s0.821-0.406 0.821-0.904v-4.679c0-0.497-0.369-0.903-0.821-0.903s-0.822 0.406-0.822 0.903v4.679zM9.131 12.528h1.95l0.002-6.741 2.304-5.775h-2.133l-1.225 4.289-1.242-4.301h-2.111l2.451 5.79 0.003 6.738z" />
  </symbol>
  <symbol id="icon-instagram" viewBox="0 0 32 32">
    <title>Instagram</title>
    <path d="M16 3.497c4.072 0 4.555 0.016 6.163 0.090 1.486 0.066 2.293 0.315 2.83 0.524 0.663 0.248 1.263 0.638 1.755 1.144 0.506 0.492 0.896 1.090 1.14 1.754 0.21 0.537 0.458 1.344 0.525 2.832 0.073 1.607 0.090 2.090 0.090 6.16 0 4.074-0.017 4.556-0.090 6.164-0.068 1.487-0.315 2.294-0.525 2.832-0.513 1.33-1.563 2.38-2.894 2.894-0.538 0.208-1.345 0.456-2.83 0.524-1.61 0.073-2.092 0.090-6.164 0.090s-4.554-0.017-6.163-0.090c-1.487-0.068-2.294-0.316-2.832-0.525-0.662-0.247-1.262-0.637-1.754-1.144-0.503-0.49-0.893-1.090-1.14-1.753-0.21-0.538-0.455-1.345-0.523-2.832-0.074-1.606-0.088-2.088-0.088-6.161s0.015-4.555 0.090-6.163c0.065-1.488 0.313-2.295 0.522-2.832 0.246-0.663 0.636-1.262 1.143-1.754 0.492-0.504 1.090-0.894 1.753-1.14 0.538-0.21 1.345-0.46 2.832-0.524 1.608-0.073 2.090-0.090 6.162-0.090zM16 0.75c-4.142 0-4.66 0.018-6.288 0.092-1.623 0.074-2.732 0.33-3.7 0.708-1.018 0.383-1.94 0.983-2.702 1.76-0.776 0.76-1.376 1.683-1.76 2.7-0.377 0.97-0.634 2.080-0.708 3.702-0.074 1.626-0.092 2.146-0.092 6.288 0 4.14 0.018 4.66 0.092 6.288 0.074 1.623 0.332 2.73 0.708 3.702 0.383 1.018 0.983 1.938 1.76 2.7 0.76 0.776 1.683 1.377 2.7 1.76 0.97 0.376 2.080 0.634 3.702 0.71 1.626 0.073 2.146 0.090 6.288 0.090s4.66-0.017 6.287-0.090c1.624-0.076 2.732-0.334 3.702-0.71 2.046-0.793 3.665-2.412 4.46-4.46 0.374-0.97 0.632-2.080 0.706-3.702 0.074-1.628 0.092-2.147 0.092-6.288s-0.020-4.66-0.093-6.288c-0.074-1.623-0.332-2.732-0.71-3.702-0.382-1.017-0.98-1.94-1.758-2.7-0.763-0.777-1.685-1.377-2.7-1.76-0.97-0.376-2.080-0.634-3.704-0.708-1.622-0.075-2.139-0.092-6.282-0.092z" />
    <path d="M16 8.168c-4.325 0-7.83 3.506-7.83 7.83s3.505 7.832 7.83 7.832c4.324 0 7.83-3.505 7.83-7.83 0-4.324-3.506-7.83-7.83-7.83zM16 21.083c-2.808 0-5.083-2.275-5.083-5.083 0-2.807 2.276-5.083 5.083-5.083s5.083 2.276 5.083 5.083c0 2.808-2.275 5.083-5.083 5.083z" />
    <path d="M25.971 7.859c0 1.011-0.819 1.83-1.83 1.83s-1.83-0.819-1.83-1.83c0-1.011 0.819-1.83 1.83-1.83s1.83 0.819 1.83 1.83z" />
  </symbol>
  <symbol id="icon-twitter" viewBox="0 0 1024 1024">
    <title>Twitter</title>
    <path class="path1" d="M1003.226 267.681c-35.491 15.627-73.63 26.486-113.623 31.254 40.788-24.366 72.306-63.301 87.138-109.387-38.14 22.778-80.515 39.198-125.543 47.94-36.549-38.406-87.933-62.506-144.878-62.506-109.387 0-197.849 88.728-197.849 197.849 0 15.627 1.854 30.722 5.032 45.025-164.475-8.21-310.411-87.138-407.881-206.854-16.952 29.398-26.752 63.301-26.752 99.587 0 68.599 34.961 129.25 87.933 164.741-32.313-1.058-63.035-10.063-89.52-24.895v2.383c0 95.879 68.332 175.866 158.648 194.139-16.685 4.502-34.166 6.885-52.176 6.885-12.712 0-25.161-1.324-37.344-3.707 25.161 78.662 98.262 135.873 184.871 137.46-67.803 52.971-153.087 84.755-245.787 84.755-15.89 0-31.783-1.058-47.144-2.649 87.667 56.149 191.756 88.991 303.526 88.991 363.914 0.266 563.085-301.406 563.085-562.822 0-8.476-0.266-17.215-0.529-25.69 38.669-27.81 72.040-62.772 98.791-102.499z" />
  </symbol>
  <symbol id="icon-chevron_up" viewBox="200 -100 1000 1024">
    <path class="path1" d="M964.254 739.703l86.246-85.997-368.534-369.652-369.652 368.534 85.957 86.246 283.447-282.535z" />
  </symbol>
  <symbol id="icon-key" viewBox="0 0 32 32">
    <path d="M21.926 0c-5.57 0-10.074 4.504-10.074 10.074 0 1.185 0.237 2.37 0.593 3.556l-12.444 12.444v5.926h5.926v-3.556h3.556v-3.556h3.556l5.333-5.333c1.067 0.356 2.252 0.593 3.556 0.593 5.57 0 10.074-4.504 10.074-10.074s-4.504-10.074-10.074-10.074zM24.889 10.667c-2.015 0-3.556-1.541-3.556-3.556s1.541-3.556 3.556-3.556 3.556 1.541 3.556 3.556-1.541 3.556-3.556 3.556z" />
  </symbol>
  <symbol id="icon-favorite" viewBox="0 0 1024 1024">
    <path class="path1" d="M513.224 965.636c-9.521 0-17.402-3.285-23.641-9.851l-337.215-325.394c-3.611-2.955-8.536-7.551-14.776-14.12s-16.417-18.387-29.881-35.462c-13.791-17.075-25.941-34.807-36.777-52.535-10.836-18.060-20.357-39.732-28.896-65.34s-12.806-50.565-12.806-74.535c0-79.131 22.986-141.19 68.625-185.847s109.013-66.984 189.788-66.984c22.327 0 44.984 3.94 68.296 11.491 23.312 7.88 44.984 18.060 64.685 31.193 20.031 13.135 37.103 25.612 51.55 37.103s28.237 23.641 41.043 36.777c12.806-12.806 26.597-25.282 41.043-36.777s31.522-23.971 51.55-37.103c20.031-13.135 41.701-23.641 64.685-31.193 23.312-7.88 45.969-11.491 68.296-11.491 80.775 0 143.816 22.327 189.788 66.984 45.641 44.656 68.625 106.713 68.625 185.847 0 79.461-41.373 160.562-123.788 242.978l-336.559 324.082c-6.24 6.895-14.447 10.18-23.641 10.18z" />
  </symbol>
  <symbol id="icon-love" viewBox="0 0 1024 1024">
    <path class="path1" d="M997.213 356.395c0 79.461-41.373 160.562-123.788 242.978l-336.559 324.082c-6.566 6.566-14.447 9.851-23.641 9.851-9.521 0-17.402-3.285-23.641-9.851l-337.215-325.394c-3.611-2.955-8.536-7.551-14.776-14.12s-16.417-18.387-29.881-35.462c-13.791-17.075-25.941-34.807-36.777-52.535-10.836-18.060-20.357-39.731-28.896-65.34s-12.806-50.565-12.806-74.535c0-79.131 22.986-141.19 68.625-185.847s109.013-66.984 189.788-66.984c22.327 0 44.984 3.94 68.296 11.491 23.312 7.88 44.984 18.060 64.685 31.193 20.031 13.135 37.103 25.612 51.55 37.103s28.237 23.641 41.043 36.777c12.806-12.806 26.597-25.282 41.043-36.777s31.522-23.971 51.55-37.103c20.031-13.135 41.701-23.641 64.685-31.193 23.312-7.88 45.969-11.491 68.296-11.491 80.775 0 143.816 22.327 189.788 66.984 45.969 44.984 68.625 107.042 68.625 186.174zM928.259 356.395c0-29.223-3.94-54.834-11.491-77.161-7.88-22.327-17.731-40.058-29.552-53.193-12.15-13.135-26.597-23.971-43.998-32.178s-34.148-13.791-50.894-16.746c-16.417-2.955-34.148-4.27-52.864-4.27s-38.747 4.596-60.415 13.791c-21.671 9.195-41.373 20.686-59.759 34.477-18.060 13.791-33.821 26.926-46.625 38.747-12.806 12.15-23.641 22.986-32.507 33.163-6.566 7.88-15.432 11.821-26.597 11.821s-20.031-3.94-26.597-11.821c-8.536-10.18-19.372-21.016-32.507-33.163-12.806-12.15-28.567-24.956-46.625-38.747s-38.088-25.282-59.759-34.477c-21.671-9.195-41.701-13.791-60.415-13.791s-36.447 1.314-52.864 4.27c-16.417 2.955-33.492 8.536-50.894 16.746s-31.851 19.046-43.998 32.178c-12.15 13.135-22.001 30.866-29.552 53.193-7.88 22.327-11.491 47.939-11.491 77.161 0 60.415 33.821 124.444 101.132 191.758l313.902 302.411 313.247-302.082c67.311-67.311 101.132-131.34 101.132-192.084z" />
  </symbol>
  <symbol id="icon-globe" viewBox="0 0 32 32">
    <path d="M31.351 14.088c-0.286-2.602-1.244-4.979-2.792-7.097-2.495-3.41-5.831-5.496-9.998-6.221-0.831-0.145-1.68-0.182-2.521-0.269-0.056 0-0.111 0-0.167 0-0.786 0.086-1.575 0.143-2.355 0.263-8.011 1.229-13.803 8.815-12.888 16.885 0.437 3.852 2.051 7.137 4.915 9.757 3.406 3.115 7.451 4.451 12.038 4.015 3.52-0.336 6.592-1.755 9.123-4.232 3.677-3.6 5.206-8.001 4.644-13.099zM28.087 22.019c-0.392-0.683-0.886-1.635-1.107-2.448-0.321-1.18-1.091-0.040-1.156 0.731s-0.578 1.348-1.605 0.193c-1.028-1.156-1.22-0.899-1.541-0.899s-0.899 0.77-0.77 4.367c0.091 2.567 1.104 2.975 1.766 3.161-1.229 0.844-2.641 1.509-4.226 1.912-6.057 1.537-12.24-1.254-15.129-6.8-2.691-5.168-1.38-11.015 1.356-14.234 0.074 0.579 0.146 1.099 0.206 1.621 0.163 1.425 0.040 2.832-0.251 4.233-0.062 0.299-0.040 0.639 0.040 0.932 0.044 0.16 0.286 0.35 0.453 0.366 0.131 0.013 0.361-0.196 0.414-0.352 0.096-0.28 0.1-0.594 0.13-0.895 0.021-0.212 0.022-0.427 0.036-0.76 0.217 0.176 0.376 0.283 0.507 0.415 0.336 0.338 0.675 0.674 0.981 1.037 0.135 0.161 0.275 0.387 0.271 0.581-0.008 0.415 0.174 0.698 0.396 1.024 0.247 0.363 0.359 0.819 0.518 1.239 0.067 0.176 0.081 0.375 0.16 0.544 0.17 0.363 0.426 0.611 0.866 0.638 0.463 0.029 0.637 0.209 0.703 0.683-0.119 0.014-0.236 0.029-0.355 0.040-0.565 0.054-0.845 0.313-0.823 0.883 0.044 1.132 0.453 2.121 1.293 2.908 0.232 0.217 0.478 0.419 0.703 0.641 0.514 0.508 0.693 1.104 0.446 1.805-0.118 0.334-0.28 0.662-0.333 1.008-0.053 0.351-0.054 0.733 0.027 1.076 0.084 0.357 0.048 1.139 0.417 1.075 0.653-0.115 1.028 0.014 1.079-0.717 0.010-0.139-0.001-0.157-0.038-0.285-0.194-0.686 0.687-2.634 1.216-2.99 0.452-0.304 0.905-0.613 1.315-0.97 0.59-0.513 0.855-1.176 0.607-1.948-0.233-0.727 0.040-1.26 0.548-1.728 0.518-0.477 0.858-1.026 0.822-1.76s-0.515-1.263-1.141-1.188c-0.306 0.036-0.599 0.183-0.897 0.283-0.437 0.148-0.864 0.355-1.313 0.435-0.629 0.111-1.016-0.299-1.297-0.798-0.226-0.401-0.3-0.432-0.692-0.182-0.331 0.211-0.66 0.424-1.003 0.616-0.356 0.199-0.55 0.125-0.824-0.172-0.162-0.175-0.387-0.299-0.595-0.425-0.15-0.092-0.353-0.117-0.473-0.232-0.161-0.156-0.386-0.387-0.363-0.556 0.027-0.198 0.256-0.447 0.457-0.528 0.345-0.14 0.737-0.163 1.108-0.243 0.197-0.043 0.397-0.088 0.584-0.161 0.255-0.102 0.244-0.269 0.049-0.427-0.096-0.077-0.215-0.132-0.332-0.178-0.564-0.227-1.132-0.445-1.696-0.673-0.14-0.056-0.278-0.125-0.404-0.208-0.355-0.233-0.397-0.49-0.076-0.774 1.27-1.12 2.754-1.448 4.068 0.040 0.407 0.461 0.683 1.036 1.068 1.52 0.303 0.382 0.651 0.74 1.035 1.034 0.158 0.121 0.515 0.142 0.692 0.044 0.264-0.144 0.273-0.474 0.14-0.749-0.115-0.239-0.25-0.474-0.412-0.682-0.747-0.962-0.695-2.837 0.767-3.62 0.489-0.262 0.983-0.538 1.217-1.241-0.28 0.076-0.483 0.125-0.683 0.186-1.111 0.344-0.337-0.485 0.174-0.629 0.31-0.088-0.278-0.326-0.278-0.326 0.014-0.024 0.39-0.132 0.809-0.31 0.288-0.122 0.583-0.26 0.822-0.455 0.155-0.127 0.215-0.37 0.317-0.561-0.026-0.030-0.051-0.059-0.077-0.090-0.294 0.040-0.587 0.083-0.881 0.116-0.499 0.056-0.616-0.042-0.662-0.545-0.032-0.343-0.382-0.53-0.709-0.354-0.221 0.12-0.412 0.294-0.625 0.431-0.491 0.318-0.858 0.191-1.051-0.358-0.115-0.327-0.275-0.388-0.575-0.205-0.151 0.092-0.277 0.226-0.431 0.312-0.252 0.141-0.508 0.282-0.779 0.378-0.264 0.093-0.581 0.161-0.76-0.128-0.193-0.311-0.024-0.613 0.219-0.808 0.302-0.242 0.65-0.43 0.99-0.621 0.484-0.272 0.996-0.499 1.464-0.796 0.343-0.219 0.493-0.575 0.382-0.996-0.094-0.355-0.331-0.475-0.66-0.313-0.272 0.135-0.509 0.346-0.788 0.455-0.204 0.078-0.458 0.079-0.678 0.040-0.081-0.014-0.167-0.239-0.169-0.369-0.002-0.075 0.151-0.205 0.248-0.221 0.675-0.105 1.353-0.194 2.032-0.272 0.090-0.010 0.225 0.046 0.281 0.117 0.448 0.566 1.074 0.841 1.732 1.037 0.553 0.164 0.633 0.086 0.709-0.494 0.71-0.167 1.432-0.497 2.147-0.046 0.397 0.25 0.758 0.568 1.094 0.897 0.083 0.082 0.032 0.336-0.008 0.499-0.053 0.22-0.174 0.422-0.23 0.642-0.108 0.425 0.167 0.758 0.606 0.751 0.139-0.003 0.277-0.031 0.417-0.038 0.406-0.019 0.55 0.136 0.513 0.546-0.053 0.581 0.044 0.651 0.63 0.552 0.169-0.028 0.363 0.048 0.535 0.108 0.102 0.036 0.182 0.134 0.273 0.203 0.545 0.413 0.962 0.258 1.122-0.418 0.017-0.074 0.015-0.152 0.030-0.227 0.063-0.303 0.234-0.381 0.439-0.166 0.433 0.459 0.84 0.944 1.28 1.444-0.473 0.433-0.488 0.96-0.384 1.476 0.116 0.574-0.035 1.073-0.261 1.579-0.217 0.485-0.456 0.966-0.601 1.473-0.217 0.761 0.029 1.109 0.802 1.277 0.737 0.161 0.858 0.309 0.886 1.030 0.037 0.983 0.542 1.662 1.405 2.095 0.192 0.096 0.395 0.168 0.591 0.249-0.097 1.516-0.529 3.093-1.27 4.59z" />
  </symbol>
</svg>
